<?xml version="1.0" standalone="no"?>
<!DOCTYPE svg PUBLIC "-//W3C//DTD SVG 1.1//EN" "http://www.w3.org/Graphics/SVG/1.1/DTD/svg11.dtd" >
<svg xmlns="http://www.w3.org/2000/svg">
<metadata>
This is a custom SVG webfont generated by Font Squirrel.
Copyright   : Copyright c 2009 by Tino Meinert All rights reserved
Designer    : Tino Meinert
Foundry     : Tino Meinert
</metadata>
<defs>
<font id="webfontpmGoSzzY" horiz-adv-x="1331" >
<font-face units-per-em="2048" ascent="1556" descent="-492" />
<missing-glyph horiz-adv-x="500" />
<glyph unicode=" " />
<glyph unicode="!" d="M547 0v225h235v-225h-235zM561 354v1047h207v-1047h-207z" />
<glyph unicode="&#x22;" d="M393 1155v434h195v-434h-195zM741 1155v434h195v-434h-195z" />
<glyph unicode="#" d="M123 272v168h248v207h-248v174h248v260h190v-260h197v260h192v-260h252v-174h-252v-207h252v-168h-252v-272h-192v272h-197v-272h-190v272h-248zM551 430h217v227h-217v-227z" />
<glyph unicode="$" d="M168 299v37l207 55v-53q0 -80 32.5 -112.5t122.5 -32.5h269q90 0 122.5 32.5t32.5 112.5v135q0 80 -32.5 112.5t-122.5 32.5h-305q-168 0 -247 74t-79 232v172q0 152 86 228.5t227 76.5h90v160h187v-160h90q313 0 313 -299v-33l-207 -55v51q0 80 -32.5 112.5t-122.5 32.5 h-269q-90 0 -122.5 -32.5t-32.5 -112.5v-115q0 -80 32.5 -112.5t122.5 -32.5h306q170 0 247.5 -73t77.5 -230v-199q0 -152 -85 -227.5t-228 -75.5h-90v-162h-187v162h-90q-313 0 -313 299z" />
<glyph unicode="%" d="M203 428v139l923 406v-139zM203 1047v272q0 80 52 130t140 50h148q88 0 140 -50t52 -130v-272q0 -80 -52 -130.5t-140 -50.5h-148q-88 0 -140 50.5t-52 130.5zM342 1079q0 -80 82 -80h90q82 0 82 80v209q0 80 -82 80h-90q-82 0 -82 -80v-209zM594 82v270q0 80 52 130 t140 50h148q88 0 140 -50t52 -130v-270q0 -80 -52 -130t-140 -50h-148q-88 0 -140 50t-52 130zM733 115q0 -82 82 -82h90q82 0 82 82v209q0 80 -82 79h-90q-82 0 -82 -79v-209z" />
<glyph unicode="&#x26;" d="M55 299v174q0 195 158 238q-158 41 -158 237v154q0 156 82 227.5t254 71.5h342q336 0 336 -287v-12l-207 -47v20q0 74 -31.5 104.5t-113.5 30.5h-299q-90 0 -123 -32.5t-33 -112.5v-123q0 -80 34 -113.5t122 -33.5h106v-170h-106q-88 0 -122 -33t-34 -113v-141 q0 -80 33 -112.5t123 -32.5h299q90 0 122.5 32.5t32.5 112.5v293h-204v157h194v144l207 47v-191h211v-157h-211v-332q0 -156 -82 -227.5t-254 -71.5h-342q-172 0 -254 71.5t-82 227.5z" />
<glyph unicode="'" d="M567 1155v434h195v-434h-195z" />
<glyph unicode="(" d="M416 -49v1399q0 156 83 227.5t255 71.5h166v-195h-142q-88 0 -121.5 -32.5t-33.5 -112.5v-1317q0 -80 33.5 -113t121.5 -33h142v-194h-166q-172 0 -255 71.5t-83 227.5z" />
<glyph unicode=")" d="M412 -154h139q90 0 123 33t33 113v1317q0 80 -33 112.5t-123 32.5h-139v195h166q172 0 253.5 -72t81.5 -227v-1399q0 -156 -81.5 -227.5t-253.5 -71.5h-166v194z" />
<glyph unicode="*" d="M172 1393l127 114l283 -168l4 2l-4 383l166 -53l-5 -330l5 -2l327 195l37 -168l-289 -162v-4l334 -188l-127 -115l-282 168l-5 -2l5 -383l-166 53l4 328l-4 4l-328 -195l-37 168l289 162v4z" />
<glyph unicode="+" d="M195 535v190h374v385h207v-385h375v-190h-375v-385h-207v385h-374z" />
<glyph unicode="," d="M514 -137h43q47 0 73.5 31.5t26.5 80.5v25h-114v229h245v-252q0 -96 -48 -153t-142 -57h-47z" />
<glyph unicode="-" d="M326 535v190h680v-190h-680z" />
<glyph unicode="." d="M543 0v229h245v-229h-245z" />
<glyph unicode="/" d="M258 -186l606 1742h207l-608 -1742h-205z" />
<glyph unicode="0" d="M162 299v803q0 156 82 227.5t254 71.5h333q172 0 254 -72t82 -227v-803q0 -156 -81.5 -227.5t-254.5 -71.5h-333q-172 0 -254 71.5t-82 227.5zM369 338q0 -80 33.5 -112.5t123.5 -32.5h277q90 0 124 32.5t34 112.5v727q0 80 -34 112.5t-124 32.5h-277q-90 0 -123.5 -32.5 t-33.5 -112.5v-727z" />
<glyph unicode="1" d="M246 0v193h393v1017h-344v191h551v-1208h381v-193h-981z" />
<glyph unicode="2" d="M139 0v166l748 676q45 41 57 71.5t12 87.5v64q0 80 -32.5 112.5t-122.5 32.5h-279q-90 0 -122.5 -32.5t-32.5 -112.5v-82l-207 55v64q0 156 83 227.5t253 71.5h331q170 0 253 -72t83 -227v-115q0 -86 -28.5 -146.5t-96.5 -119.5l-577 -524v-4h751v-193h-1073z" />
<glyph unicode="3" d="M162 299v45l207 55v-61q0 -80 33.5 -112.5t123.5 -32.5h277q90 0 124 32.5t34 112.5v135q0 80 -34 112.5t-124 32.5h-279v185h279q90 0 124 33.5t34 113.5v115q0 80 -34 112.5t-124 32.5h-277q-90 0 -123.5 -32.5t-33.5 -112.5v-61l-207 55v43q0 156 83 227.5t253 71.5 h333q170 0 253 -72t83 -227v-154q0 -197 -157 -237q158 -43 157 -238v-174q0 -156 -81.5 -227.5t-254.5 -71.5h-333q-172 0 -254 71.5t-82 227.5z" />
<glyph unicode="4" d="M92 346v184l696 871h250v-864h240v-191h-240v-346h-207v346h-739zM340 537h491v604z" />
<glyph unicode="5" d="M190 299v45l207 35v-41q0 -80 33 -112.5t123 -32.5h258q90 0 123 32.5t33 112.5v207q0 80 -33 112.5t-123 32.5h-250q-90 0 -127 -29.5t-37 -91.5h-207v832h969v-191h-762v-397q63 63 221 64h226q330 0 330 -302v-276q0 -156 -82 -227.5t-254 -71.5h-312 q-172 0 -254 71.5t-82 227.5z" />
<glyph unicode="6" d="M182 299v803q0 156 81 227.5t251 71.5h338q170 0 253 -72t83 -227v-33l-207 -49v45q0 80 -34 112.5t-124 32.5h-276q-90 0 -124 -32.5t-34 -112.5v-283q47 63 221 64h246q176 0 254 -74t78 -233v-240q0 -156 -82 -227.5t-254 -71.5h-334q-172 0 -254 71.5t-82 227.5z M389 338q0 -80 34 -112.5t124 -32.5h276q90 0 124 32.5t34 112.5v176q0 80 -34 112.5t-124 32.5h-268q-92 0 -129 -29.5t-37 -97.5v-194z" />
<glyph unicode="7" d="M168 1210v191h993v-182l-536 -1219h-232l547 1210h-772z" />
<glyph unicode="8" d="M168 299v174q0 193 147 238q-147 41 -147 237v154q0 156 83 227.5t253 71.5h321q170 0 253 -72t83 -227v-154q0 -197 -147 -237q147 -45 147 -238v-174q0 -156 -82 -227.5t-254 -71.5h-321q-172 0 -254 71.5t-82 227.5zM375 338q0 -80 32.5 -112.5t122.5 -32.5h269 q90 0 122.5 32.5t32.5 112.5v133q0 78 -32.5 111.5t-120.5 33.5h-273q-86 0 -119.5 -33.5t-33.5 -111.5v-133zM375 948q0 -80 33.5 -112.5t119.5 -32.5h273q88 0 120.5 32.5t32.5 112.5v117q0 80 -32.5 112.5t-122.5 32.5h-269q-90 0 -122.5 -32.5t-32.5 -112.5v-117z" />
<glyph unicode="9" d="M141 299v27l207 59v-47q0 -80 34 -112.5t124 -32.5h276q90 0 124 32.5t34 112.5v289q-41 -55 -225 -56h-252q-176 0 -249 70t-73 229v232q0 156 83 227.5t253 71.5h334q170 0 253 -72t83 -227v-803q0 -156 -83 -227.5t-253 -71.5h-334q-170 0 -253 71.5t-83 227.5z M348 903q0 -80 34 -112.5t124 -32.5h276q88 0 123 29.5t35 95.5v182q0 80 -34 112.5t-124 32.5h-276q-90 0 -124 -32.5t-34 -112.5v-162z" />
<glyph unicode=":" d="M543 0v229h245v-229h-245zM543 776v230h245v-230h-245z" />
<glyph unicode=";" d="M514 -137h43q47 0 73.5 31.5t26.5 80.5v25h-114v229h245v-252q0 -96 -48 -153t-142 -57h-47zM543 776v230h245v-230h-245z" />
<glyph unicode="&#x3c;" d="M248 551v158l833 415v-211l-581 -280v-4l581 -283v-209z" />
<glyph unicode="=" d="M231 330v188h869v-188h-869zM231 739v189h869v-189h-869z" />
<glyph unicode="&#x3e;" d="M248 137v209l581 283v4l-581 280v211l833 -415v-158z" />
<glyph unicode="?" d="M137 1038v64q0 156 83 227.5t253 71.5h332q346 0 346 -305v-172q0 -150 -71.5 -222.5t-202.5 -72.5h-43q-88 0 -120 -31t-32 -111v-133h-207v187q0 274 266 274h47q88 0 122 32t34 107v111q0 80 -32.5 112.5t-123.5 32.5h-288q-90 0 -123 -32.5t-33 -112.5v-82zM461 0 v225h235v-225h-235z" />
<glyph unicode="@" d="M29 -66v865q0 283 315 282h651q156 0 230.5 -65.5t74.5 -206.5v-520q0 -152 -44 -220.5t-175 -68.5h-55q-156 0 -188 106h-4q-55 -106 -199 -106h-78q-109 0 -154 53t-45 166v301q0 113 45.5 166t153.5 53h78q135 0 186 -102h4l15 94h125v-489q0 -66 17 -87.5t73 -21.5 q57 0 73.5 21.5t16.5 95.5v526q0 84 -37 120t-133 36h-608q-96 0 -139.5 -41t-43.5 -125v-801q0 -84 43 -125t140 -41h921l-53 -147h-891q-315 -1 -315 282zM514 274q0 -68 21.5 -94t78.5 -26h58q66 0 101.5 46t35.5 113v119q0 68 -36 114t-101 46h-58q-57 0 -78.5 -27.5 t-21.5 -95.5v-195z" />
<glyph unicode="A" d="M96 0v352l463 1049h213l463 -1049v-352h-207v317l-55 117h-617l-53 -117v-317h-207zM422 618h485l-237 545h-8z" />
<glyph unicode="B" d="M182 0v1401h649q172 0 254 -72t82 -227v-152q0 -195 -157 -237q158 -41 157 -238v-176q0 -156 -81.5 -227.5t-254.5 -71.5h-649zM389 193h414q90 0 124 32.5t34 112.5v135q0 80 -34 112.5t-124 32.5h-414v-425zM389 805h414q90 0 124 34.5t34 114.5v111q0 80 -34 112.5 t-124 32.5h-414v-405z" />
<glyph unicode="C" d="M162 299v803q0 156 83 227.5t253 71.5h338q170 0 252.5 -72t82.5 -227v-84l-206 -55v102q0 80 -33 112.5t-123 32.5h-283q-90 0 -123.5 -32.5t-33.5 -112.5v-727q0 -80 33.5 -112.5t123.5 -32.5h283q90 0 123 32.5t33 112.5v115l206 -62v-92q0 -156 -81.5 -227.5 t-253.5 -71.5h-338q-172 0 -254 71.5t-82 227.5z" />
<glyph unicode="D" d="M158 0v1401h684q170 0 249.5 -70.5t79.5 -228.5v-803q0 -158 -79.5 -228.5t-249.5 -70.5h-684zM365 193h444q90 0 123 32.5t33 112.5v727q0 80 -33 112.5t-123 32.5h-444v-1017z" />
<glyph unicode="E" d="M197 0v1401h946v-191h-740v-401h621v-186h-621v-430h740v-193h-946z" />
<glyph unicode="F" d="M221 0v1401h969v-191h-762v-434h651v-186h-651v-590h-207z" />
<glyph unicode="G" d="M160 299v803q0 156 82 227.5t254 71.5h348q170 0 247.5 -70.5t77.5 -228.5v-53l-206 -56v72q0 80 -33 112.5t-123 32.5h-285q-90 0 -122.5 -32.5t-32.5 -112.5v-727q0 -80 32.5 -112.5t120.5 -32.5h299q88 0 119 30.5t31 108.5v270h-275v164h475v-467 q0 -156 -81.5 -227.5t-253.5 -71.5h-338q-172 0 -254 71.5t-82 227.5z" />
<glyph unicode="H" d="M139 0v1401h207v-596h637v596h207v-1401h-207v618h-637v-618h-207z" />
<glyph unicode="I" d="M172 0v193h389v1017h-364v191h938v-191h-367v-1017h389v-193h-985z" />
<glyph unicode="J" d="M158 299v139l207 60v-160q0 -80 32.5 -112.5t122.5 -32.5h258q90 0 123 32.5t33 112.5v872h-703v191h910v-1102q0 -156 -82 -227.5t-254 -71.5h-311q-172 0 -254 71.5t-82 227.5z" />
<glyph unicode="K" d="M158 0v1401h207v-676h6l608 676h268l-499 -551l423 -416v-434h-200v346l-353 348l-253 -258v-436h-207z" />
<glyph unicode="L" d="M195 0v1401h206v-1208h791v-193h-997z" />
<glyph unicode="M" d="M96 0v1401h217l353 -641l350 641h219v-1401h-207v1034h-8l-289 -542h-131l-291 542h-6v-1034h-207z" />
<glyph unicode="N" d="M141 0v1401h199l631 -1018h10v1018h207v-1401h-201l-629 1004h-10v-1004h-207z" />
<glyph unicode="O" d="M137 299v803q0 156 82 227.5t254 71.5h383q172 0 254 -72t82 -227v-803q0 -156 -82 -227.5t-254 -71.5h-383q-172 0 -254 71.5t-82 227.5zM344 338q0 -80 33 -112.5t123 -32.5h329q90 0 123 32.5t33 112.5v727q0 80 -32.5 112.5t-123.5 32.5h-329q-90 0 -123 -32.5 t-33 -112.5v-727z" />
<glyph unicode="P" d="M219 0v1401h643q170 0 253 -72t83 -227v-221q0 -156 -83 -227.5t-253 -71.5h-436v-582h-207zM426 768h408q88 0 122.5 38t34.5 118v141q0 80 -33.5 112.5t-123.5 32.5h-408v-442z" />
<glyph unicode="Q" d="M145 299v803q0 156 82 227.5t254 71.5h365q172 0 254 -72t82 -227v-803q0 -207 -158 -256l283 -283h-244l-234 240h-348q-172 0 -254 71.5t-82 227.5zM352 338q0 -80 34 -112.5t124 -32.5h307q90 0 124 32.5t34 112.5v727q0 80 -34 112.5t-124 32.5h-307 q-90 0 -124 -32.5t-34 -112.5v-727z" />
<glyph unicode="R" d="M186 0v1401h650q170 0 252.5 -72t82.5 -227v-205q0 -236 -221 -268l221 -307v-322h-206v270l-224 312h-348v-582h-207zM393 768h416q90 0 123 33t33 112v152q0 80 -33 112.5t-123 32.5h-416v-442z" />
<glyph unicode="S" d="M168 299v37l207 55v-53q0 -80 32.5 -112.5t122.5 -32.5h269q90 0 122.5 32.5t32.5 112.5v135q0 80 -32.5 112.5t-122.5 32.5h-305q-168 0 -247 74t-79 232v172q0 305 346 305h311q170 0 253 -72t83 -227v-33l-207 -55v51q0 80 -32.5 112.5t-122.5 32.5h-269 q-90 0 -122.5 -32.5t-32.5 -112.5v-115q0 -80 32.5 -112.5t122.5 -32.5h306q170 0 247.5 -73t77.5 -230v-199q0 -303 -346 -303h-311q-172 0 -254 71.5t-82 227.5z" />
<glyph unicode="T" d="M94 1210v191h1143v-191h-469v-1210h-207v1210h-467z" />
<glyph unicode="U" d="M158 299v1102h207v-1063q0 -80 33.5 -112.5t125.5 -32.5h285q90 0 123 32.5t33 112.5v1063h206v-1102q0 -156 -81.5 -227.5t-253.5 -71.5h-342q-172 0 -254 71.5t-82 227.5z" />
<glyph unicode="V" d="M106 1036v365h207v-336l349 -827h6l350 827v336h207v-365l-449 -1036h-223z" />
<glyph unicode="W" d="M74 1057v344h192v-301l137 -750h11l184 561h135l182 -561h13l137 750v301h190v-344l-204 -1057h-189l-192 561h-11l-192 -561h-188z" />
<glyph unicode="X" d="M135 0v350l391 375l-348 326v350h207v-283l281 -272l278 272v283h207v-350l-348 -326l391 -375v-350h-207v281l-321 313l-324 -313v-281h-207z" />
<glyph unicode="Y" d="M127 1018v383h207v-305l332 -320l331 320v305h207v-383l-434 -408v-610h-207v610z" />
<glyph unicode="Z" d="M147 0v180l750 1030h-715v191h973v-182l-747 -1026h772v-193h-1033z" />
<glyph unicode="[" d="M416 -348v1997h504v-195h-297v-1608h297v-194h-504z" />
<glyph unicode="\" d="M258 1556h205l608 -1742h-207z" />
<glyph unicode="]" d="M412 -154h295v1608h-295v195h501v-1997h-501v194z" />
<glyph unicode="^" d="M156 877l440 577h137l443 -577h-234l-276 370l-279 -370h-231z" />
<glyph unicode="_" d="M57 0v195h1217v-195h-1217z" />
<glyph unicode="`" d="M465 1513h201l198 -249h-202z" />
<glyph unicode="a" d="M184 285v96q0 150 75 216.5t228 66.5h136q197 0 278 -82h4v172q0 86 -34.5 121.5t-127.5 35.5h-174q-84 0 -115.5 -30.5t-31.5 -100.5v-28l-197 51v20q0 258 328 258h209q340 0 340 -319v-762h-197v86h-4q-78 -86 -268 -86h-146q-154 0 -228.5 66.5t-74.5 218.5zM381 307 q0 -76 36 -105.5t122 -29.5h151q215 0 215 127v74q0 127 -215 127h-151q-86 0 -122 -30t-36 -105v-58z" />
<glyph unicode="b" d="M229 0v1401h207v-416h6q74 96 267 96h174q301 0 301 -309v-463q0 -309 -301 -309h-174q-193 0 -267 96h-6v-96h-207zM436 369q0 -90 62.5 -133t163.5 -43h143q94 0 133 40.5t39 137.5v342q0 96 -39 137t-133 41h-143q-100 0 -163 -43t-63 -133v-346z" />
<glyph unicode="c" d="M195 299v483q0 156 82.5 227.5t252.5 71.5h267q170 0 253 -71.5t83 -227.5v-53l-207 -55v71q0 80 -33 113t-123 33h-211q-90 0 -124 -33t-34 -113v-407q0 -80 34 -112.5t124 -32.5h211q90 0 123 32.5t33 112.5v61l207 -61v-39q0 -156 -82 -227.5t-254 -71.5h-267 q-172 0 -253.5 71.5t-81.5 227.5z" />
<glyph unicode="d" d="M147 309v463q0 309 302 309h172q195 0 268 -96h4v416h207v-1401h-207v96h-4q-74 -96 -268 -96h-172q-302 0 -302 309zM354 371q0 -96 39 -137t133 -41h142q100 0 162.5 43t62.5 133v346q0 90 -62.5 133t-162.5 43h-142q-94 0 -133 -41t-39 -137v-342z" />
<glyph unicode="e" d="M207 299v483q0 156 83 227.5t253 71.5h243q336 0 336 -313v-291h-719v-158q0 -80 33 -113.5t123 -33.5h207q90 0 125 29.5t35 105.5v58l196 -39v-50q0 -150 -85 -213t-261 -63h-233q-172 0 -254 71.5t-82 227.5zM403 635h523v129q0 80 -31 113.5t-125 33.5h-211 q-94 0 -125 -32.5t-31 -112.5v-131z" />
<glyph unicode="f" d="M123 664v186h317v252q0 156 83 227.5t253 71.5h398l-50 -191h-319q-90 0 -124 -32.5t-34 -112.5v-215h438v-186h-438v-664h-207v664h-317z" />
<glyph unicode="g" d="M168 -168l207 55v-49q0 -80 32.5 -112.5t122.5 -32.5h226q90 0 123.5 32.5t33.5 112.5v258h-4q-74 -96 -268 -96h-172q-301 0 -301 309v463q0 309 301 309h172q195 0 268 -96h4v96h207v-1274q0 -299 -350 -299h-268q-170 0 -252 71t-82 222v31zM375 371q0 -96 39 -137 t133 -41h141q100 0 162.5 43t62.5 133v346q0 90 -62.5 133t-162.5 43h-141q-94 0 -133 -41t-39 -137v-342z" />
<glyph unicode="h" d="M178 0v1401h207v-416h4q74 96 268 96h172q301 0 301 -309v-772h-206v713q0 96 -39 137t-133 41h-142q-100 0 -162.5 -43t-62.5 -133v-715h-207z" />
<glyph unicode="i" d="M197 0v193h426v698h-383v190h589v-888h365v-193h-997zM604 1307v200h225v-200h-225z" />
<glyph unicode="j" d="M178 -86l207 59v-135q0 -80 33 -112.5t123 -32.5h137q90 0 125 33.5t35 111.5v1053h-482v190h688v-1274q0 -299 -352 -299h-180q-170 0 -252 71t-82 222v113zM819 1307v200h225v-200h-225z" />
<glyph unicode="k" d="M164 0v1401h207v-836h2l534 516h281l-422 -391l340 -325v-365h-207v297l-270 256l-258 -238v-315h-207z" />
<glyph unicode="l" d="M186 0v193h426v1017h-383v191h590v-1208h365v-193h-998z" />
<glyph unicode="m" d="M88 0v1081h168v-123h4q47 123 203 123h86q88 0 127 -32.5t51 -90.5h2q16 49 68.5 86t138.5 37h84q123 0 173 -67.5t50 -220.5v-793h-184v764q0 76 -20.5 104.5t-80.5 28.5h-65q-57 0 -97 -42t-40 -132v-723h-181v774q0 68 -21.5 95.5t-76.5 27.5h-67q-137 0 -138 -174 v-723h-184z" />
<glyph unicode="n" d="M193 0v1081h206v-96h7q74 96 266 96h164q301 0 301 -309v-772h-207v715q0 94 -39 135t-133 41h-133q-100 0 -163 -43t-63 -133v-715h-206z" />
<glyph unicode="o" d="M190 299v483q0 156 83 227.5t253 71.5h277q170 0 253 -71.5t83 -227.5v-483q0 -156 -82 -227.5t-254 -71.5h-277q-172 0 -254 71.5t-82 227.5zM397 338q0 -80 34 -112.5t124 -32.5h221q90 0 123 32.5t33 112.5v407q0 80 -33 113t-123 33h-221q-90 0 -124 -33t-34 -113 v-407z" />
<glyph unicode="p" d="M209 -453v1534h207v-96h4q74 96 268 96h172q301 0 301 -309v-463q0 -309 -301 -309h-172q-195 0 -268 96h-4v-549h-207zM416 369q0 -90 62.5 -133t162.5 -43h141q94 0 133 40.5t39 137.5v342q0 96 -38.5 137t-133.5 41h-141q-100 0 -162.5 -43t-62.5 -133v-346z" />
<glyph unicode="q" d="M168 309v463q0 309 301 309h172q195 0 268 -96h4v96h207v-1534h-207v549h-4q-74 -96 -268 -96h-172q-301 0 -301 309zM375 371q0 -96 39 -137t133 -41h141q100 0 162.5 43t62.5 133v346q0 90 -62.5 133t-162.5 43h-141q-94 0 -133 -41t-39 -137v-342z" />
<glyph unicode="r" d="M260 0v1081h207v-96h4q74 96 268 96h148q301 0 301 -309v-84l-207 -55v86q0 96 -36 134t-130 38h-123q-100 0 -162.5 -43t-62.5 -133v-715h-207z" />
<glyph unicode="s" d="M213 260v39l197 49v-47q0 -72 30.5 -100.5t122.5 -28.5h199q90 0 124 27.5t34 99.5v43q0 72 -37 101.5t-135 29.5h-209q-178 0 -252 62.5t-74 214.5v49q0 152 87 217t257 65h238q178 0 249.5 -63.5t71.5 -192.5v-16l-196 -53v30q0 72 -30 98.5t-124 26.5h-199 q-88 0 -122.5 -26.5t-34.5 -96.5v-24q0 -72 35.5 -99.5t136.5 -27.5h198q176 0 256 -69.5t80 -219.5v-67q0 -150 -87 -215.5t-257 -65.5h-237q-178 0 -250 64.5t-72 195.5z" />
<glyph unicode="t" d="M106 895v186h355v320h207v-320h448v-186h-448v-557q0 -80 32.5 -112.5t122.5 -32.5h283l35 -193h-344q-172 0 -254 70.5t-82 224.5v600h-355z" />
<glyph unicode="u" d="M188 309v772h207v-710q0 -96 39 -137t133 -41h142q100 0 162.5 43t62.5 133v712h207v-1081h-207v96h-4q-74 -96 -268 -96h-173q-301 0 -301 309z" />
<glyph unicode="v" d="M170 717v364h207v-329l285 -539h6l286 539v329h207v-364l-385 -717h-223z" />
<glyph unicode="w" d="M76 739v342h196v-325l125 -447h9l198 555h121l199 -555h8l125 447v325h196v-342l-217 -739h-178l-188 524h-8l-191 -524h-176z" />
<glyph unicode="x" d="M186 0v281l340 284l-301 252v264h207v-202l234 -203l233 203v202h207v-264l-301 -252l338 -284v-281h-207v217l-270 227l-273 -227v-217h-207z" />
<glyph unicode="y" d="M182 -168l207 55v-49q0 -80 34 -112.5t124 -32.5h233q90 0 125 33.5t35 111.5v258h-6q-74 -96 -266 -96h-185q-301 0 -301 309v772h207v-710q0 -96 39 -137t133 -41h154q100 0 162.5 43t62.5 133v712h207v-1274q0 -299 -352 -299h-277q-170 0 -253 71t-83 222v31z" />
<glyph unicode="z" d="M176 0v168l672 725v4h-631v184h909v-168l-665 -723v-4h692v-186h-977z" />
<glyph unicode="{" d="M332 618v185h37q88 0 121.5 32.5t33.5 112.5v402q0 156 82 227.5t254 71.5h141v-195h-112q-90 0 -124 -32.5t-34 -112.5v-371q0 -109 -30.5 -158t-106.5 -67v-6q76 -18 106.5 -67.5t30.5 -156.5v-491q0 -80 34 -113t124 -33h115v-194h-144q-172 0 -254 71.5t-82 227.5 v522q0 80 -33.5 112.5t-121.5 32.5h-37z" />
<glyph unicode="|" d="M561 -186v1742h207v-1742h-207z" />
<glyph unicode="}" d="M326 1454v195h143q170 0 253 -72t83 -227v-402q0 -80 33.5 -112.5t122.5 -32.5h36v-185h-36q-88 0 -122 -32.5t-34 -112.5v-522q0 -156 -82 -227.5t-254 -71.5h-141v194h112q90 0 124 33t34 113v491q0 106 30.5 155.5t106.5 68.5v6q-76 18 -106.5 67t-30.5 158v371 q0 80 -34 112.5t-124 32.5h-114z" />
<glyph unicode="~" d="M207 897q0 147 73.5 239.5t217.5 92.5q76 0 133 -37t102 -73t88 -36q109 0 109 142h192q0 -147 -72.5 -239.5t-215.5 -92.5q-76 0 -133.5 37t-102.5 72.5t-90 35.5q-106 0 -107 -141h-194z" />
<glyph unicode="&#xa0;" />
<glyph unicode="&#xa1;" d="M549 856v225h235v-225h-235zM563 -319v1046h207v-1046h-207z" />
<glyph unicode="&#xa2;" d="M188 299v483q0 299 314 299h76v164h176v-164h73q313 0 314 -299v-53l-207 -55v71q0 80 -33 113t-123 33h-227q-90 0 -123 -33t-33 -113v-407q0 -80 33 -112.5t123 -32.5h227q90 0 123 32.5t33 112.5v61l207 -61v-39q0 -299 -314 -299h-73v-164h-176v164h-76 q-314 0 -314 299z" />
<glyph unicode="&#xa3;" d="M41 608v187h186v307q0 156 83 227.5t253 71.5h342q170 0 253 -72t83 -227v-47l-207 -56v66q0 80 -32.5 112.5t-122.5 32.5h-289q-90 0 -123 -32.5t-33 -112.5v-270h430l-51 -187h-379v-415h776v-193h-983v608h-186z" />
<glyph unicode="&#xa4;" d="M180 350l164 164q-55 80 -55 194.5t55 194.5l-164 164l127 127l166 -166q86 53 193 53q104 0 190 -53l168 166l127 -127l-166 -164q57 -82 57 -194.5t-57 -194.5l166 -164l-127 -127l-168 166q-84 -51 -190 -51q-109 0 -193 51l-166 -166zM469 709q0 -86 55.5 -140.5 t141.5 -54.5t140 54.5t54 140.5t-54 141t-140 55t-141.5 -55t-55.5 -141z" />
<glyph unicode="&#xa5;" d="M127 1018v383h207v-303l332 -322l331 322v303h207v-383l-381 -336v-2h287l-51 -137h-291v-111h248l-51 -137h-197v-295h-207v295h-205l-51 137h256v111h-301l-51 137h297v2z" />
<glyph unicode="&#xa6;" d="M561 -186v723h207v-723h-207zM561 864v692h207v-692h-207z" />
<glyph unicode="&#xa7;" d="M182 92v35l207 55v-45q0 -78 33 -108.5t123 -30.5h262q90 0 123 30.5t33 108.5v60q0 78 -33 108.5t-123 30.5h-293q-170 0 -251 69.5t-81 219.5v84q0 186 133 245q-68 29 -100.5 82.5t-32.5 151.5v74q0 295 346 294h306q336 0 335 -278v-33l-206 -55v47q0 78 -33 108.5 t-123 30.5h-262q-90 0 -123 -30.5t-33 -108.5v-59q0 -78 33 -109t123 -31h293q170 0 250.5 -69.5t80.5 -218.5v-84q0 -186 -133 -246q68 -29 100.5 -82t32.5 -152v-80q0 -293 -346 -292h-305q-336 -1 -336 278zM389 651q0 -78 33 -109.5t123 -31.5h262q90 0 123 30.5 t33 108.5v74q0 78 -33 109.5t-123 31.5h-262q-90 0 -123 -31.5t-33 -109.5v-72z" />
<glyph unicode="&#xa8;" d="M377 1286v174h201v-174h-201zM754 1286v174h198v-174h-198z" />
<glyph unicode="&#xa9;" d="M39 299v803q0 156 82 227.5t254 71.5h579q172 0 254 -72t82 -227v-803q0 -156 -82 -227.5t-254 -71.5h-579q-172 0 -254 71.5t-82 227.5zM211 344q0 -94 42 -137t140 -43h543q98 0 140 43t42 137v711q0 94 -42 138t-140 44h-543q-98 0 -140 -44t-42 -138v-711zM373 561 v289q0 123 47 173t178 50h137q131 0 177 -48t46 -169v-45l-124 -35v53q0 61 -23 86t-88 25h-109q-68 0 -90 -24.5t-22 -86.5v-258q0 -61 22.5 -84.5t89.5 -23.5h109q66 0 88.5 23.5t22.5 84.5v68l124 -35v-53q0 -123 -48 -172t-181 -49h-131q-133 0 -179 50t-46 181z" />
<glyph unicode="&#xaa;" d="M342 965v57q0 98 45 143t152 45h118q111 0 170 -59h7v113q0 57 -19.5 78.5t-73.5 21.5h-143q-51 0 -69.5 -19.5t-18.5 -64.5v-10l-150 30v15q0 166 195 166h225q209 0 209 -193v-506h-155v76h-7q-43 -82 -176 -82h-112q-106 0 -151.5 45.5t-45.5 143.5zM487 979 q0 -47 21.5 -66.5t75.5 -19.5h112q135 0 135 96v27q0 84 -133 84h-114q-53 0 -75 -19.5t-22 -66.5v-35z" />
<glyph unicode="&#xab;" d="M199 164l262 444l-262 445h207l266 -445l-266 -444h-207zM664 164l262 444l-262 445h208l267 -445l-267 -444h-208z" />
<glyph unicode="&#xac;" d="M190 535v190h951v-555h-213v365h-738z" />
<glyph unicode="&#xad;" d="M326 535v190h680v-190h-680z" />
<glyph unicode="&#xae;" d="M119 874v594q0 135 69.5 196.5t217.5 61.5h516q150 0 219 -61t69 -197v-594q0 -133 -70.5 -194.5t-217.5 -61.5h-516q-147 0 -217 61.5t-70 194.5zM264 897q0 -78 34 -111.5t122 -33.5h489q86 0 121 33.5t35 111.5v551q0 76 -35 110.5t-121 34.5h-489q-88 0 -122 -34.5 t-34 -110.5v-551zM438 881v579h334q137 0 137 -114v-115q0 -45 -25.5 -75t-64.5 -36v-2l90 -117v-120h-108v96l-92 125h-162v-221h-109zM547 1190h192q35 0 48.5 12t13.5 43v66q0 57 -62 57h-192v-178z" />
<glyph unicode="&#xaf;" d="M367 1298v150h598v-150h-598z" />
<glyph unicode="&#xb0;" d="M289 1282q0 162 106.5 266.5t270 104.5t270 -104.5t106.5 -266.5t-106.5 -267.5t-270 -105.5t-270 105.5t-106.5 267.5zM469 1282q0 -86 55.5 -141.5t141.5 -55.5t140 55.5t54 141.5t-54 140.5t-140 54.5t-141.5 -54.5t-55.5 -140.5z" />
<glyph unicode="&#xb1;" d="M213 113v190h905v-190h-905zM213 778v189h348v346h207v-346h350v-189h-350v-346h-207v346h-348z" />
<glyph unicode="&#xb2;" d="M387 1286v47q0 147 182 148h199q82 0 127 -40t45 -114v-72q0 -98 -70 -153l-254 -230h332v-129h-553v109l348 305q47 41 48 90v41q0 66 -78 66h-109q-76 0 -76 -62v-47z" />
<glyph unicode="&#xb3;" d="M385 891v51l141 33v-41q0 -61 76 -62h115q78 0 78 64v63q0 61 -88 62h-113v102h113q88 0 88 62v67q0 61 -78 62h-115q-76 0 -76 -62v-39l-141 33v47q0 74 49 111t133 37h205q82 0 127 -40t45 -116v-100q0 -90 -80 -113q80 -23 80 -113v-98q0 -76 -45 -117t-127 -41h-205 q-84 0 -133 37t-49 111z" />
<glyph unicode="&#xb4;" d="M465 1264l199 249h200l-196 -249h-203z" />
<glyph unicode="&#xb5;" d="M205 -348v1429h207v-712q0 -90 62.5 -133t162.5 -43h143q94 0 133 40.5t39 137.5v710h207v-772q0 -309 -301 -309h-174q-193 0 -266 96h-6v-444h-207z" />
<glyph unicode="&#xb7;" d="M543 535v229h245v-229h-245z" />
<glyph unicode="&#xb8;" d="M438 -348l58 135h125q63 0 84.5 22.5t21.5 81.5v37h166v-61q0 -113 -52.5 -164t-183.5 -51h-219z" />
<glyph unicode="&#xb9;" d="M416 745v129h174v482h-164v127h313v-609h176v-129h-499z" />
<glyph unicode="&#xba;" d="M338 922v381q0 178 209 178h235q209 0 209 -178v-381q0 -178 -209 -179h-235q-209 1 -209 179zM489 944q0 -72 84 -72h183q84 0 84 72v338q0 72 -84 72h-183q-84 0 -84 -72v-338z" />
<glyph unicode="&#xbb;" d="M193 608l266 445h207l-263 -445l263 -444h-207zM657 608l267 445h209l-261 -445l261 -444h-209z" />
<glyph unicode="&#xbc;" d="M8 690v129h164v481h-154v127h304v-608h165v-129h-479zM121 -10l1016 1513l102 -78l-1016 -1511zM659 129v123l381 461h162v-457h121v-127h-121v-154h-141v154h-402zM827 256h234l2 281h-6z" />
<glyph unicode="&#xbd;" d="M8 690v129h164v481h-154v127h304v-608h165v-129h-479zM121 -10l1016 1513l102 -78l-1016 -1511zM768 -25v109l348 305q49 41 49 90v41q0 66 -80 66h-108q-76 0 -76 -62v-47l-131 31v57q0 74 49 111t133 37h191q82 0 127 -40t45 -114v-72q0 -55 -15.5 -87.5t-54.5 -65.5 l-254 -230h330v-129h-553z" />
<glyph unicode="&#xbe;" d="M-4 838v51l127 33v-41q0 -61 76 -62h125q76 0 75 62v69q0 61 -88 62h-121v92h121q88 0 88 61v72q0 63 -75 63h-125q-76 0 -76 -61v-41l-127 33v49q0 74 49 110.5t133 36.5h189q82 0 127 -40.5t45 -116.5v-99q0 -90 -80 -114q80 -23 80 -113v-96q0 -76 -45 -117t-127 -41 h-189q-84 0 -133 37t-49 111zM143 -10l1018 1513l103 -78l-1018 -1511zM659 129v123l381 461h162v-457h121v-127h-121v-154h-141v154h-402zM827 256h234l2 281h-6z" />
<glyph unicode="&#xbf;" d="M178 -43v172q0 150 72 222.5t203 72.5h43q88 0 119.5 30.5t31.5 110.5v133h207v-186q0 -274 -266 -274h-47q-88 0 -122 -32t-34 -108v-110q0 -80 33 -113t123 -33h288q90 0 123 33t33 113v82l207 -56v-63q0 -156 -83 -227.5t-253 -71.5h-332q-346 0 -346 305zM633 827 v226h235v-226h-235z" />
<glyph unicode="&#xc0;" d="M96 0v352l463 1049h213l463 -1049v-352h-207v317l-55 117h-617l-53 -117v-317h-207zM403 1772h201l199 -250h-203zM422 618h485l-237 545h-8z" />
<glyph unicode="&#xc1;" d="M96 0v352l463 1049h213l463 -1049v-352h-207v317l-55 117h-617l-53 -117v-317h-207zM422 618h485l-237 545h-8zM526 1522l199 250h201l-197 -250h-203z" />
<glyph unicode="&#xc2;" d="M96 0v352l463 1049h213l463 -1049v-352h-207v317l-55 117h-617l-53 -117v-317h-207zM371 1518l211 258h166l213 -258h-189l-100 133h-15l-98 -133h-188zM422 618h485l-237 545h-8z" />
<glyph unicode="&#xc3;" d="M96 0v352l463 1049h213l463 -1049v-352h-207v317l-55 117h-617l-53 -117v-317h-207zM332 1536q0 106 54 175t159 69q70 0 130 -50.5t95 -50.5q74 0 74 95h153q0 -106 -54 -175t-159 -69q-70 0 -130 50t-95 50q-74 0 -74 -94h-153zM422 618h485l-237 545h-8z" />
<glyph unicode="&#xc4;" d="M96 0v352l463 1049h213l463 -1049v-352h-207v317l-55 117h-617l-53 -117v-317h-207zM377 1563v174h201v-174h-201zM422 618h485l-237 545h-8zM754 1563v174h198v-174h-198z" />
<glyph unicode="&#xc5;" d="M96 0v352l463 1049h213l463 -1049v-352h-207v317l-55 117h-617l-53 -117v-317h-207zM422 618h485l-237 545h-8zM467 1665q0 84 56.5 138.5t140.5 54.5t140 -54.5t56 -138.5q0 -82 -56 -136t-140 -54t-140.5 54t-56.5 136zM578 1665q0 -37 24.5 -61.5t61.5 -24.5 q39 0 63.5 24.5t24.5 61.5q0 39 -23.5 63.5t-64.5 24.5q-37 0 -61.5 -24.5t-24.5 -63.5z" />
<glyph unicode="&#xc6;" d="M41 0v367l569 1034h670v-191h-408v-401h310v-186h-310v-430h408v-193h-614v403h-373l-45 -81v-322h-207zM369 567h297v537h-11z" />
<glyph unicode="&#xc7;" d="M162 299v803q0 156 83 227.5t253 71.5h338q170 0 252.5 -72t82.5 -227v-84l-206 -55v102q0 80 -33 112.5t-123 32.5h-283q-90 0 -123.5 -32.5t-33.5 -112.5v-727q0 -80 33.5 -112.5t123.5 -32.5h283q90 0 123 32.5t33 112.5v115l206 -62v-92q0 -156 -81.5 -227.5 t-253.5 -71.5h-338q-172 0 -254 71.5t-82 227.5zM350 -348h219q131 0 183.5 51t52.5 164v61h-166v-37q0 -59 -21.5 -81.5t-85.5 -22.5h-124z" />
<glyph unicode="&#xc8;" d="M197 0v1401h946v-191h-740v-401h621v-186h-621v-430h740v-193h-946zM403 1772h201l199 -250h-203z" />
<glyph unicode="&#xc9;" d="M197 0v1401h946v-191h-740v-401h621v-186h-621v-430h740v-193h-946zM526 1522l199 250h201l-197 -250h-203z" />
<glyph unicode="&#xca;" d="M197 0v1401h946v-191h-740v-401h621v-186h-621v-430h740v-193h-946zM371 1518l211 258h166l213 -258h-189l-100 133h-15l-98 -133h-188z" />
<glyph unicode="&#xcb;" d="M197 0v1401h946v-191h-740v-401h621v-186h-621v-430h740v-193h-946zM377 1563v174h201v-174h-201zM754 1563v174h198v-174h-198z" />
<glyph unicode="&#xcc;" d="M172 0v193h389v1017h-364v191h938v-191h-367v-1017h389v-193h-985zM403 1772h201l199 -250h-203z" />
<glyph unicode="&#xcd;" d="M172 0v193h389v1017h-364v191h938v-191h-367v-1017h389v-193h-985zM526 1522l199 250h201l-197 -250h-203z" />
<glyph unicode="&#xce;" d="M172 0v193h389v1017h-364v191h938v-191h-367v-1017h389v-193h-985zM373 1518l211 258h166l213 -258h-189l-100 133h-15l-98 -133h-188z" />
<glyph unicode="&#xcf;" d="M172 0v193h389v1017h-364v191h938v-191h-367v-1017h389v-193h-985zM377 1563v174h201v-174h-201zM754 1563v174h198v-174h-198z" />
<glyph unicode="&#xd0;" d="M82 610v185h129v606h666q170 0 249.5 -72t79.5 -227v-803q0 -158 -81 -228.5t-251 -70.5h-663v610h-129zM418 193h424q90 0 123.5 32.5t33.5 112.5v727q0 80 -33.5 112.5t-123.5 32.5h-424v-415h293v-185h-293v-417z" />
<glyph unicode="&#xd1;" d="M141 0v1401h199l631 -1018h10v1018h207v-1401h-201l-629 1004h-10v-1004h-207zM332 1536q0 106 54 175t159 69q70 0 130 -50.5t95 -50.5q74 0 74 95h153q0 -106 -54 -175t-159 -69q-70 0 -130 50t-95 50q-74 0 -74 -94h-153z" />
<glyph unicode="&#xd2;" d="M137 299v803q0 156 82 227.5t254 71.5h383q172 0 254 -72t82 -227v-803q0 -156 -82 -227.5t-254 -71.5h-383q-172 0 -254 71.5t-82 227.5zM344 338q0 -80 33 -112.5t123 -32.5h329q90 0 123 32.5t33 112.5v727q0 80 -32.5 112.5t-123.5 32.5h-329q-90 0 -123 -32.5 t-33 -112.5v-727zM403 1772h201l199 -250h-203z" />
<glyph unicode="&#xd3;" d="M137 299v803q0 156 82 227.5t254 71.5h383q172 0 254 -72t82 -227v-803q0 -156 -82 -227.5t-254 -71.5h-383q-172 0 -254 71.5t-82 227.5zM344 338q0 -80 33 -112.5t123 -32.5h329q90 0 123 32.5t33 112.5v727q0 80 -32.5 112.5t-123.5 32.5h-329q-90 0 -123 -32.5 t-33 -112.5v-727zM526 1522l199 250h201l-197 -250h-203z" />
<glyph unicode="&#xd4;" d="M137 299v803q0 156 82 227.5t254 71.5h383q172 0 254 -72t82 -227v-803q0 -156 -82 -227.5t-254 -71.5h-383q-172 0 -254 71.5t-82 227.5zM344 338q0 -80 33 -112.5t123 -32.5h329q90 0 123 32.5t33 112.5v727q0 80 -32.5 112.5t-123.5 32.5h-329q-90 0 -123 -32.5 t-33 -112.5v-727zM371 1518l211 258h166l213 -258h-189l-100 133h-15l-98 -133h-188z" />
<glyph unicode="&#xd5;" d="M137 299v803q0 156 82 227.5t254 71.5h383q172 0 254 -72t82 -227v-803q0 -156 -82 -227.5t-254 -71.5h-383q-172 0 -254 71.5t-82 227.5zM332 1536q0 106 54 175t159 69q70 0 130 -50.5t95 -50.5q74 0 74 95h153q0 -106 -54 -175t-159 -69q-70 0 -130 50t-95 50 q-74 0 -74 -94h-153zM344 338q0 -80 33 -112.5t123 -32.5h329q90 0 123 32.5t33 112.5v727q0 80 -32.5 112.5t-123.5 32.5h-329q-90 0 -123 -32.5t-33 -112.5v-727z" />
<glyph unicode="&#xd6;" d="M137 299v803q0 156 82 227.5t254 71.5h383q172 0 254 -72t82 -227v-803q0 -156 -82 -227.5t-254 -71.5h-383q-172 0 -254 71.5t-82 227.5zM344 338q0 -80 33 -112.5t123 -32.5h329q90 0 123 32.5t33 112.5v727q0 80 -32.5 112.5t-123.5 32.5h-329q-90 0 -123 -32.5 t-33 -112.5v-727zM377 1563v174h201v-174h-201zM754 1563v174h198v-174h-198z" />
<glyph unicode="&#xd7;" d="M256 354l279 277l-279 278l131 131l277 -278l278 278l131 -131l-278 -278l278 -277l-131 -131l-278 279l-277 -279z" />
<glyph unicode="&#xd8;" d="M33 -168l157 256q-63 66 -63 211v803q0 156 83 227.5t253 71.5h403q80 0 127 -12l113 180h192l-159 -258q63 -70 63 -209v-803q0 -158 -83 -228.5t-253 -70.5h-403q-82 0 -127 12l-113 -180h-190zM338 481q0 -119 2 -139l543 870q-27 4 -107 5h-280q-90 0 -124 -33 t-34 -113v-590zM451 193q29 -4 118 -5h265q90 0 123.5 33t33.5 113v612q0 86 -4 107z" />
<glyph unicode="&#xd9;" d="M158 299v1102h207v-1063q0 -80 33.5 -112.5t125.5 -32.5h285q90 0 123 32.5t33 112.5v1063h206v-1102q0 -156 -81.5 -227.5t-253.5 -71.5h-342q-172 0 -254 71.5t-82 227.5zM403 1772h201l199 -250h-203z" />
<glyph unicode="&#xda;" d="M158 299v1102h207v-1063q0 -80 33.5 -112.5t125.5 -32.5h285q90 0 123 32.5t33 112.5v1063h206v-1102q0 -156 -81.5 -227.5t-253.5 -71.5h-342q-172 0 -254 71.5t-82 227.5zM526 1522l199 250h201l-197 -250h-203z" />
<glyph unicode="&#xdb;" d="M158 299v1102h207v-1063q0 -80 33.5 -112.5t125.5 -32.5h285q90 0 123 32.5t33 112.5v1063h206v-1102q0 -156 -81.5 -227.5t-253.5 -71.5h-342q-172 0 -254 71.5t-82 227.5zM371 1518l211 258h166l213 -258h-189l-100 133h-15l-98 -133h-188z" />
<glyph unicode="&#xdc;" d="M158 299v1102h207v-1063q0 -80 33.5 -112.5t125.5 -32.5h285q90 0 123 32.5t33 112.5v1063h206v-1102q0 -156 -81.5 -227.5t-253.5 -71.5h-342q-172 0 -254 71.5t-82 227.5zM377 1563v174h201v-174h-201zM754 1563v174h198v-174h-198z" />
<glyph unicode="&#xdd;" d="M125 1018v383h207v-305l332 -320l331 320v305h207v-383l-434 -408v-610h-207v610zM526 1522l199 250h201l-197 -250h-203z" />
<glyph unicode="&#xde;" d="M229 0v1401h207v-244h420q172 0 254 -71.5t82 -227.5v-219q0 -156 -82 -227.5t-254 -71.5h-420v-340h-207zM436 526h393q88 0 122 37t34 119v141q0 80 -32.5 113t-123.5 33h-393v-443z" />
<glyph unicode="&#xdf;" d="M84 618v185h147v299q0 156 83 227.5t253 71.5h342q170 0 253 -72t83 -227v-154q0 -100 -37 -158.5t-121 -78.5q158 -43 158 -238v-174q0 -156 -82 -227.5t-254 -71.5h-260l-53 193h287q90 0 122.5 32.5t32.5 112.5v135q0 80 -33.5 112.5t-121.5 32.5h-217v185h217 q88 0 121.5 33.5t33.5 113.5v115q0 80 -32.5 112.5t-122.5 32.5h-289q-90 0 -123 -32.5t-33 -112.5v-1065h-207v618h-147z" />
<glyph unicode="&#xe0;" d="M184 285v96q0 150 75 216.5t228 66.5h136q197 0 278 -82h4v172q0 86 -34.5 121.5t-127.5 35.5h-174q-84 0 -115.5 -30.5t-31.5 -100.5v-28l-197 51v20q0 258 328 258h209q340 0 340 -319v-762h-197v86h-4q-78 -86 -268 -86h-146q-154 0 -228.5 66.5t-74.5 218.5zM381 307 q0 -76 36 -105.5t122 -29.5h151q215 0 215 127v74q0 127 -215 127h-151q-86 0 -122 -30t-36 -105v-58zM403 1477h201l199 -250h-203z" />
<glyph unicode="&#xe1;" d="M184 285v96q0 150 75 216.5t228 66.5h136q197 0 278 -82h4v172q0 86 -34.5 121.5t-127.5 35.5h-174q-84 0 -115.5 -30.5t-31.5 -100.5v-28l-197 51v20q0 258 328 258h209q340 0 340 -319v-762h-197v86h-4q-78 -86 -268 -86h-146q-154 0 -228.5 66.5t-74.5 218.5zM381 307 q0 -76 36 -105.5t122 -29.5h151q215 0 215 127v74q0 127 -215 127h-151q-86 0 -122 -30t-36 -105v-58zM526 1227l199 250h201l-197 -250h-203z" />
<glyph unicode="&#xe2;" d="M184 285v96q0 150 75 216.5t228 66.5h136q197 0 278 -82h4v172q0 86 -34.5 121.5t-127.5 35.5h-174q-84 0 -115.5 -30.5t-31.5 -100.5v-28l-197 51v20q0 258 328 258h209q340 0 340 -319v-762h-197v86h-4q-78 -86 -268 -86h-146q-154 0 -228.5 66.5t-74.5 218.5z M371 1223l211 258h166l213 -258h-189l-100 133h-15l-98 -133h-188zM381 307q0 -76 36 -105.5t122 -29.5h151q215 0 215 127v74q0 127 -215 127h-151q-86 0 -122 -30t-36 -105v-58z" />
<glyph unicode="&#xe3;" d="M184 285v96q0 150 75 216.5t228 66.5h136q197 0 278 -82h4v172q0 86 -34.5 121.5t-127.5 35.5h-174q-84 0 -115.5 -30.5t-31.5 -100.5v-28l-197 51v20q0 258 328 258h209q340 0 340 -319v-762h-197v86h-4q-78 -86 -268 -86h-146q-154 0 -228.5 66.5t-74.5 218.5z M332 1233q0 106 54 175t159 69q70 0 130 -50.5t95 -50.5q74 0 74 94h153q0 -106 -54 -174.5t-159 -68.5q-70 0 -130 50t-95 50q-74 0 -74 -94h-153zM381 307q0 -76 36 -105.5t122 -29.5h151q215 0 215 127v74q0 127 -215 127h-151q-86 0 -122 -30t-36 -105v-58z" />
<glyph unicode="&#xe4;" d="M184 285v96q0 150 75 216.5t228 66.5h136q197 0 278 -82h4v172q0 86 -34.5 121.5t-127.5 35.5h-174q-84 0 -115.5 -30.5t-31.5 -100.5v-28l-197 51v20q0 258 328 258h209q340 0 340 -319v-762h-197v86h-4q-78 -86 -268 -86h-146q-154 0 -228.5 66.5t-74.5 218.5z M377 1266v174h201v-174h-201zM381 307q0 -76 36 -105.5t122 -29.5h151q215 0 215 127v74q0 127 -215 127h-151q-86 0 -122 -30t-36 -105v-58zM754 1266v174h198v-174h-198z" />
<glyph unicode="&#xe5;" d="M184 285v96q0 150 75 216.5t228 66.5h136q197 0 278 -82h4v172q0 86 -34.5 121.5t-127.5 35.5h-174q-84 0 -115.5 -30.5t-31.5 -100.5v-28l-197 51v20q0 258 328 258h209q340 0 340 -319v-762h-197v86h-4q-78 -86 -268 -86h-146q-154 0 -228.5 66.5t-74.5 218.5zM381 307 q0 -76 36 -105.5t122 -29.5h151q215 0 215 127v74q0 127 -215 127h-151q-86 0 -122 -30t-36 -105v-58zM467 1382q0 84 56.5 138.5t140.5 54.5t140 -54.5t56 -138.5q0 -82 -56 -136t-140 -54t-140.5 54t-56.5 136zM578 1382q0 -37 24.5 -61.5t61.5 -24.5q39 0 63.5 25 t24.5 61q0 39 -23.5 63.5t-64.5 24.5q-37 0 -61.5 -24.5t-24.5 -63.5z" />
<glyph unicode="&#xe6;" d="M47 287v104q0 156 67.5 215.5t241.5 57.5h217v110q0 78 -30.5 107.5t-120.5 29.5h-60q-80 0 -106.5 -27.5t-26.5 -99.5v-26l-172 51v14q0 127 62.5 192.5t212.5 65.5h104q184 0 234 -116h6q45 117 233 116h84q162 0 226.5 -79.5t64.5 -243.5v-258h-510v-185 q0 -80 28.5 -111.5t108.5 -31.5h74q80 0 105.5 30.5t25.5 110.5v31l168 -53v-12q0 -141 -56.5 -210t-213.5 -69h-99q-195 0 -239 115h-6q-49 -115 -234 -115h-94q-160 0 -227.5 64.5t-67.5 222.5zM233 305q0 -78 27 -105.5t113 -27.5h59q84 0 116 32t32 107v189h-201 q-86 0 -116 -29t-30 -102v-64zM774 664h342v104q0 82 -25.5 112.5t-109.5 30.5h-59q-84 0 -116 -31.5t-32 -107.5v-108z" />
<glyph unicode="&#xe7;" d="M193 299v483q0 156 82.5 227.5t252.5 71.5h267q170 0 252.5 -71.5t82.5 -227.5v-53l-206 -55v71q0 80 -33 113t-123 33h-211q-90 0 -124 -33t-34 -113v-407q0 -80 34 -112.5t124 -32.5h211q90 0 123 32.5t33 112.5v61l206 -61v-39q0 -156 -81.5 -227.5t-253.5 -71.5h-267 q-172 0 -253.5 71.5t-81.5 227.5zM350 -348h219q131 0 183.5 51t52.5 164v61h-166v-37q0 -59 -21.5 -81.5t-85.5 -22.5h-124z" />
<glyph unicode="&#xe8;" d="M205 299v483q0 156 83 227.5t253 71.5h243q336 0 336 -313v-291h-719v-158q0 -80 33 -113.5t123 -33.5h207q90 0 125 29.5t35 105.5v58l196 -39v-50q0 -150 -85 -213t-261 -63h-233q-172 0 -254 71.5t-82 227.5zM401 635h523v129q0 80 -31 113.5t-125 33.5h-211 q-94 0 -125 -32.5t-31 -112.5v-131zM403 1477h201l199 -250h-203z" />
<glyph unicode="&#xe9;" d="M205 299v483q0 156 83 227.5t253 71.5h243q336 0 336 -313v-291h-719v-158q0 -80 33 -113.5t123 -33.5h207q90 0 125 29.5t35 105.5v58l196 -39v-50q0 -150 -85 -213t-261 -63h-233q-172 0 -254 71.5t-82 227.5zM401 635h523v129q0 80 -31 113.5t-125 33.5h-211 q-94 0 -125 -32.5t-31 -112.5v-131zM526 1227l199 250h201l-197 -250h-203z" />
<glyph unicode="&#xea;" d="M205 299v483q0 156 83 227.5t253 71.5h243q336 0 336 -313v-291h-719v-158q0 -80 33 -113.5t123 -33.5h207q90 0 125 29.5t35 105.5v58l196 -39v-50q0 -150 -85 -213t-261 -63h-233q-172 0 -254 71.5t-82 227.5zM371 1223l211 258h166l213 -258h-189l-100 133h-15 l-98 -133h-188zM401 635h523v129q0 80 -31 113.5t-125 33.5h-211q-94 0 -125 -32.5t-31 -112.5v-131z" />
<glyph unicode="&#xeb;" d="M205 299v483q0 156 83 227.5t253 71.5h243q336 0 336 -313v-291h-719v-158q0 -80 33 -113.5t123 -33.5h207q90 0 125 29.5t35 105.5v58l196 -39v-50q0 -150 -85 -213t-261 -63h-233q-172 0 -254 71.5t-82 227.5zM377 1266v174h201v-174h-201zM401 635h523v129 q0 80 -31 113.5t-125 33.5h-211q-94 0 -125 -32.5t-31 -112.5v-131zM754 1266v174h198v-174h-198z" />
<glyph unicode="&#xec;" d="M166 0v193h426v698h-383v190h590v-888h364v-193h-997zM403 1477h201l199 -250h-203z" />
<glyph unicode="&#xed;" d="M166 0v193h426v698h-383v190h590v-888h364v-193h-997zM526 1227l199 250h201l-197 -250h-203z" />
<glyph unicode="&#xee;" d="M166 0v193h426v698h-383v190h590v-888h364v-193h-997zM371 1223l211 258h166l213 -258h-189l-100 133h-15l-98 -133h-188z" />
<glyph unicode="&#xef;" d="M166 0v193h426v698h-383v190h590v-888h364v-193h-997zM381 1266v174h201v-174h-201zM758 1266v174h198v-174h-198z" />
<glyph unicode="&#xf0;" d="M193 299v299q0 156 82.5 227.5t252.5 71.5h213q57 0 88 -10l2 4l-114 176h-268l-80 147h272l-135 213h211l131 -213h184l76 -147h-186l168 -281q47 -86 47 -188v-299q0 -156 -83 -227.5t-253 -71.5h-273q-172 0 -253.5 71.5t-81.5 227.5zM399 338q0 -80 34 -112.5 t124 -32.5h215q90 0 124 32.5t34 112.5v229q0 80 -34 113t-124 33h-215q-90 0 -124 -33t-34 -113v-229z" />
<glyph unicode="&#xf1;" d="M193 0v1081h206v-96h7q74 96 266 96h164q301 0 301 -309v-772h-207v715q0 94 -39 135t-133 41h-133q-100 0 -163 -43t-63 -133v-715h-206zM332 1233q0 106 54 175t159 69q70 0 130 -50.5t95 -50.5q74 0 74 94h153q0 -106 -54 -174.5t-159 -68.5q-70 0 -130 50t-95 50 q-74 0 -74 -94h-153z" />
<glyph unicode="&#xf2;" d="M190 299v483q0 156 83 227.5t253 71.5h277q170 0 253 -71.5t83 -227.5v-483q0 -156 -82 -227.5t-254 -71.5h-277q-172 0 -254 71.5t-82 227.5zM397 338q0 -80 34 -112.5t124 -32.5h221q90 0 123 32.5t33 112.5v407q0 80 -33 113t-123 33h-221q-90 0 -124 -33t-34 -113 v-407zM403 1477h201l199 -250h-203z" />
<glyph unicode="&#xf3;" d="M190 299v483q0 156 83 227.5t253 71.5h277q170 0 253 -71.5t83 -227.5v-483q0 -156 -82 -227.5t-254 -71.5h-277q-172 0 -254 71.5t-82 227.5zM397 338q0 -80 34 -112.5t124 -32.5h221q90 0 123 32.5t33 112.5v407q0 80 -33 113t-123 33h-221q-90 0 -124 -33t-34 -113 v-407zM526 1227l199 250h201l-197 -250h-203z" />
<glyph unicode="&#xf4;" d="M190 299v483q0 156 83 227.5t253 71.5h277q170 0 253 -71.5t83 -227.5v-483q0 -156 -82 -227.5t-254 -71.5h-277q-172 0 -254 71.5t-82 227.5zM371 1223l211 258h166l213 -258h-189l-100 133h-15l-98 -133h-188zM397 338q0 -80 34 -112.5t124 -32.5h221q90 0 123 32.5 t33 112.5v407q0 80 -33 113t-123 33h-221q-90 0 -124 -33t-34 -113v-407z" />
<glyph unicode="&#xf5;" d="M190 299v483q0 156 83 227.5t253 71.5h277q170 0 253 -71.5t83 -227.5v-483q0 -156 -82 -227.5t-254 -71.5h-277q-172 0 -254 71.5t-82 227.5zM332 1233q0 106 54 175t159 69q70 0 130 -50.5t95 -50.5q74 0 74 94h153q0 -106 -54 -174.5t-159 -68.5q-70 0 -130 50t-95 50 q-74 0 -74 -94h-153zM397 338q0 -80 34 -112.5t124 -32.5h221q90 0 123 32.5t33 112.5v407q0 80 -33 113t-123 33h-221q-90 0 -124 -33t-34 -113v-407z" />
<glyph unicode="&#xf6;" d="M190 299v483q0 156 83 227.5t253 71.5h277q170 0 253 -71.5t83 -227.5v-483q0 -156 -82 -227.5t-254 -71.5h-277q-172 0 -254 71.5t-82 227.5zM377 1266v174h201v-174h-201zM397 338q0 -80 34 -112.5t124 -32.5h221q90 0 123 32.5t33 112.5v407q0 80 -33 113t-123 33 h-221q-90 0 -124 -33t-34 -113v-407zM754 1266v174h198v-174h-198z" />
<glyph unicode="&#xf7;" d="M170 535v190h991v-190h-991zM543 123v225h245v-225h-245zM543 911v226h245v-226h-245z" />
<glyph unicode="&#xf8;" d="M37 -168l205 272q-63 63 -64 195v483q0 156 82 227.5t254 71.5h301q86 0 139 -24l148 192h192l-209 -274q66 -70 66 -193v-483q0 -156 -82 -227.5t-254 -71.5h-301q-94 0 -141 23l-146 -191h-190zM375 420q0 -86 4 -115l465 592q-29 10 -109 10h-205q-90 0 -122.5 -32.5 t-32.5 -112.5v-342zM487 186q23 -8 117 -8h195q90 0 122.5 34t32.5 114v327q0 78 -6 121z" />
<glyph unicode="&#xf9;" d="M188 309v772h207v-710q0 -96 39 -137t133 -41h142q100 0 162.5 43t62.5 133v712h207v-1081h-207v96h-4q-74 -96 -268 -96h-173q-301 0 -301 309zM403 1477h201l199 -250h-203z" />
<glyph unicode="&#xfa;" d="M188 309v772h207v-710q0 -96 39 -137t133 -41h142q100 0 162.5 43t62.5 133v712h207v-1081h-207v96h-4q-74 -96 -268 -96h-173q-301 0 -301 309zM526 1227l199 250h201l-197 -250h-203z" />
<glyph unicode="&#xfb;" d="M188 309v772h207v-710q0 -96 39 -137t133 -41h142q100 0 162.5 43t62.5 133v712h207v-1081h-207v96h-4q-74 -96 -268 -96h-173q-301 0 -301 309zM371 1223l211 258h166l213 -258h-189l-100 133h-15l-98 -133h-188z" />
<glyph unicode="&#xfc;" d="M188 309v772h207v-710q0 -96 39 -137t133 -41h142q100 0 162.5 43t62.5 133v712h207v-1081h-207v96h-4q-74 -96 -268 -96h-173q-301 0 -301 309zM377 1266v174h201v-174h-201zM754 1266v174h198v-174h-198z" />
<glyph unicode="&#xfd;" d="M182 -168v-31q0 -152 83 -222.5t253 -70.5h277q352 0 352 299v1274h-207v-712q0 -90 -62.5 -133t-162.5 -43h-154q-94 0 -133 40.5t-39 137.5v710h-207v-772q0 -309 301 -309h185q193 0 266 96h6v-258q0 -78 -35 -111.5t-125 -33.5h-233q-90 0 -124 32.5t-34 112.5v49z M526 1227l199 250h201l-197 -250h-203z" />
<glyph unicode="&#xfe;" d="M244 -348v1749h207v-416h6q74 96 266 96h174q301 0 301 -309v-463q0 -309 -301 -309h-174q-193 0 -266 96h-6v-444h-207zM451 369q0 -90 62 -133t163 -43h143q94 0 133 40.5t39 137.5v342q0 96 -39 137t-133 41h-143q-100 0 -162.5 -43t-62.5 -133v-346z" />
<glyph unicode="&#xff;" d="M182 -168v-31q0 -152 83 -222.5t253 -70.5h277q352 0 352 299v1274h-207v-712q0 -90 -62.5 -133t-162.5 -43h-154q-94 0 -133 40.5t-39 137.5v710h-207v-772q0 -309 301 -309h185q193 0 266 96h6v-258q0 -78 -35 -111.5t-125 -33.5h-233q-90 0 -124 32.5t-34 112.5v49z M377 1266v174h201v-174h-201zM754 1266v174h198v-174h-198z" />
<glyph unicode="&#x100;" d="M96 0v352l463 1049h213l463 -1049v-352h-207v317l-55 117h-617l-53 -117v-317h-207zM367 1569v149h598v-149h-598zM422 618h485l-237 545h-8z" />
<glyph unicode="&#x101;" d="M184 285v96q0 150 75 216.5t228 66.5h136q197 0 278 -82h4v172q0 86 -34.5 121.5t-127.5 35.5h-174q-84 0 -115.5 -30.5t-31.5 -100.5v-28l-197 51v20q0 258 328 258h209q340 0 340 -319v-762h-197v86h-4q-78 -86 -268 -86h-146q-154 0 -228.5 66.5t-74.5 218.5z M367 1278v149h598v-149h-598zM381 307q0 -76 36 -105.5t122 -29.5h151q215 0 215 127v74q0 127 -215 127h-151q-86 0 -122 -30t-36 -105v-58z" />
<glyph unicode="&#x112;" d="M197 0v1401h946v-191h-740v-401h621v-186h-621v-430h740v-193h-946zM367 1569v149h598v-149h-598z" />
<glyph unicode="&#x113;" d="M205 299v483q0 156 83 227.5t253 71.5h243q336 0 336 -313v-291h-719v-158q0 -80 33 -113.5t123 -33.5h207q90 0 125 29.5t35 105.5v58l196 -39v-50q0 -150 -85 -213t-261 -63h-233q-172 0 -254 71.5t-82 227.5zM367 1278v149h598v-149h-598zM401 635h523v129 q0 80 -31 113.5t-125 33.5h-211q-94 0 -125 -32.5t-31 -112.5v-131z" />
<glyph unicode="&#x128;" d="M172 0v193h389v1017h-364v191h938v-191h-367v-1017h389v-193h-985zM332 1536q0 106 54 175t159 69q70 0 130 -50.5t95 -50.5q74 0 74 95h153q0 -106 -54 -175t-159 -69q-70 0 -130 50t-95 50q-74 0 -74 -94h-153z" />
<glyph unicode="&#x129;" d="M166 0v193h426v698h-383v190h590v-888h364v-193h-997zM332 1233q0 106 54 175t159 69q70 0 130 -50.5t95 -50.5q74 0 74 94h153q0 -106 -54 -174.5t-159 -68.5q-70 0 -130 50t-95 50q-74 0 -74 -94h-153z" />
<glyph unicode="&#x12b;" d="M166 0v193h426v698h-383v190h590v-888h364v-193h-997zM367 1278v149h598v-149h-598z" />
<glyph unicode="&#x131;" d="M166 0v193h426v698h-383v190h590v-888h364v-193h-997z" />
<glyph unicode="&#x14c;" d="M137 299v803q0 156 82 227.5t254 71.5h383q172 0 254 -72t82 -227v-803q0 -156 -82 -227.5t-254 -71.5h-383q-172 0 -254 71.5t-82 227.5zM344 338q0 -80 33 -112.5t123 -32.5h329q90 0 123 32.5t33 112.5v727q0 80 -32.5 112.5t-123.5 32.5h-329q-90 0 -123 -32.5 t-33 -112.5v-727zM367 1569v149h598v-149h-598z" />
<glyph unicode="&#x14d;" d="M190 299v483q0 156 83 227.5t253 71.5h277q170 0 253 -71.5t83 -227.5v-483q0 -156 -82 -227.5t-254 -71.5h-277q-172 0 -254 71.5t-82 227.5zM367 1278v149h598v-149h-598zM397 338q0 -80 34 -112.5t124 -32.5h221q90 0 123 32.5t33 112.5v407q0 80 -33 113t-123 33 h-221q-90 0 -124 -33t-34 -113v-407z" />
<glyph unicode="&#x152;" d="M53 299v803q0 299 324 299h92q174 0 217 -82h4v82h594v-191h-407v-401h309v-186h-309v-430h407v-193h-594v82h-4q-43 -82 -217 -82h-92q-324 0 -324 299zM260 338q0 -80 33 -112.5t123 -32.5h88q100 0 138 46t38 148v625q0 102 -37 150t-133 48h-94q-90 0 -123 -32.5 t-33 -112.5v-727z" />
<glyph unicode="&#x153;" d="M47 293v489q0 160 67.5 229.5t233.5 69.5h84q188 0 238 -116h6q45 117 233 116h84q162 0 226.5 -79.5t64.5 -243.5v-258h-510v-185q0 -80 28.5 -111.5t108.5 -31.5h74q80 0 105.5 30.5t25.5 110.5v31l168 -53v-12q0 -141 -56.5 -210t-213.5 -69h-99q-195 0 -239 115h-6 q-49 -115 -238 -115h-82q-168 0 -235.5 67.5t-67.5 225.5zM221 313q0 -80 31 -110.5t117 -30.5h53q86 0 121 36t35 120v428q0 84 -35 119.5t-121 35.5h-53q-86 0 -117 -30.5t-31 -110.5v-457zM774 664h342v104q0 82 -25.5 112.5t-109.5 30.5h-59q-84 0 -116 -31.5 t-32 -107.5v-108z" />
<glyph unicode="&#x160;" d="M168 299v37l207 55v-53q0 -80 32.5 -112.5t122.5 -32.5h269q90 0 122.5 32.5t32.5 112.5v135q0 80 -32.5 112.5t-122.5 32.5h-305q-168 0 -247 74t-79 232v172q0 305 346 305h311q170 0 253 -72t83 -227v-33l-207 -55v51q0 80 -32.5 112.5t-122.5 32.5h-269 q-90 0 -122.5 -32.5t-32.5 -112.5v-115q0 -80 32.5 -112.5t122.5 -32.5h306q170 0 247.5 -73t77.5 -230v-199q0 -303 -346 -303h-311q-172 0 -254 71.5t-82 227.5zM371 1776h188l100 -134h13l100 134h189l-213 -258h-166z" />
<glyph unicode="&#x161;" d="M213 260v39l197 49v-47q0 -72 30.5 -100.5t122.5 -28.5h199q90 0 124 27.5t34 99.5v43q0 72 -37 101.5t-135 29.5h-209q-178 0 -252 62.5t-74 214.5v49q0 152 87 217t257 65h238q178 0 249.5 -63.5t71.5 -192.5v-16l-196 -53v30q0 72 -30 98.5t-124 26.5h-199 q-88 0 -122.5 -26.5t-34.5 -96.5v-24q0 -72 35.5 -99.5t136.5 -27.5h198q176 0 256 -69.5t80 -219.5v-67q0 -150 -87 -215.5t-257 -65.5h-237q-178 0 -250 64.5t-72 195.5zM371 1481h188l100 -133h13l100 133h189l-213 -258h-166z" />
<glyph unicode="&#x168;" d="M158 299v1102h207v-1063q0 -80 33.5 -112.5t125.5 -32.5h285q90 0 123 32.5t33 112.5v1063h206v-1102q0 -156 -81.5 -227.5t-253.5 -71.5h-342q-172 0 -254 71.5t-82 227.5zM332 1536q0 106 54 175t159 69q70 0 130 -50.5t95 -50.5q74 0 74 95h153q0 -106 -54 -175 t-159 -69q-70 0 -130 50t-95 50q-74 0 -74 -94h-153z" />
<glyph unicode="&#x169;" d="M188 309v772h207v-710q0 -96 39 -137t133 -41h142q100 0 162.5 43t62.5 133v712h207v-1081h-207v96h-4q-74 -96 -268 -96h-173q-301 0 -301 309zM332 1233q0 106 54 175t159 69q70 0 130 -50.5t95 -50.5q74 0 74 94h153q0 -106 -54 -174.5t-159 -68.5q-70 0 -130 50 t-95 50q-74 0 -74 -94h-153z" />
<glyph unicode="&#x16a;" d="M158 299v1102h207v-1063q0 -80 33.5 -112.5t125.5 -32.5h285q90 0 123 32.5t33 112.5v1063h206v-1102q0 -156 -81.5 -227.5t-253.5 -71.5h-342q-172 0 -254 71.5t-82 227.5zM367 1569v149h598v-149h-598z" />
<glyph unicode="&#x16b;" d="M188 309v772h207v-710q0 -96 39 -137t133 -41h142q100 0 162.5 43t62.5 133v712h207v-1081h-207v96h-4q-74 -96 -268 -96h-173q-301 0 -301 309zM367 1278v149h598v-149h-598z" />
<glyph unicode="&#x178;" d="M127 1018v383h207v-305l332 -320l331 320v305h207v-383l-434 -408v-610h-207v610zM377 1563v174h201v-174h-201zM754 1563v174h198v-174h-198z" />
<glyph unicode="&#x17d;" d="M147 0v180l750 1030h-715v191h973v-182l-747 -1026h772v-193h-1033zM371 1776h188l100 -134h13l100 134h189l-213 -258h-166z" />
<glyph unicode="&#x17e;" d="M176 0v168l672 725v4h-631v184h909v-168l-665 -723v-4h692v-186h-977zM371 1481h188l100 -133h13l100 133h189l-213 -258h-166z" />
<glyph unicode="&#x192;" d="M100 -348l50 194h206q90 0 123 33t33 113v708h-301v187h301v215q0 156 83 227.5t253 71.5h377l-49 -191h-299q-90 0 -124 -32.5t-34 -112.5v-178h373v-187h-373v-749q0 -158 -75 -228.5t-245 -70.5h-299z" />
<glyph unicode="&#x2c6;" d="M371 1260l211 258h166l213 -258h-189l-100 133h-15l-98 -133h-188z" />
<glyph unicode="&#x2c7;" d="M371 1518h188l100 -134h13l100 134h189l-213 -258h-166z" />
<glyph unicode="&#x2da;" d="M467 1393q0 84 56.5 138t140.5 54t140 -54t56 -138q0 -82 -56 -136.5t-140 -54.5t-140.5 54.5t-56.5 136.5zM578 1393q0 -37 24.5 -61.5t61.5 -24.5q39 0 63.5 24.5t24.5 61.5q0 41 -23.5 64.5t-64.5 23.5q-37 0 -61.5 -24.5t-24.5 -63.5z" />
<glyph unicode="&#x2dc;" d="M332 1270q0 106 54 174.5t159 68.5q70 0 130 -50t95 -50q74 0 74 94h153q0 -106 -54 -174.5t-159 -68.5q-70 0 -130 50t-95 50q-74 0 -74 -94h-153z" />
<glyph unicode="&#x2000;" horiz-adv-x="927" />
<glyph unicode="&#x2001;" horiz-adv-x="1857" />
<glyph unicode="&#x2002;" horiz-adv-x="927" />
<glyph unicode="&#x2003;" horiz-adv-x="1857" />
<glyph unicode="&#x2004;" horiz-adv-x="618" />
<glyph unicode="&#x2005;" horiz-adv-x="462" />
<glyph unicode="&#x2006;" horiz-adv-x="309" />
<glyph unicode="&#x2007;" horiz-adv-x="309" />
<glyph unicode="&#x2008;" horiz-adv-x="231" />
<glyph unicode="&#x2009;" horiz-adv-x="370" />
<glyph unicode="&#x200a;" horiz-adv-x="102" />
<glyph unicode="&#x2010;" d="M326 535v190h680v-190h-680z" />
<glyph unicode="&#x2011;" d="M326 535v190h680v-190h-680z" />
<glyph unicode="&#x2013;" d="M221 535v190h889v-190h-889z" />
<glyph unicode="&#x2014;" d="M152 535v190h1028v-190h-1028z" />
<glyph unicode="&#x2018;" d="M528 1171v252q0 96 48.5 153.5t142.5 57.5h47l37 -96h-43q-47 0 -74 -31.5t-27 -81.5v-24h115v-230h-246z" />
<glyph unicode="&#x2019;" d="M514 1171h43q47 0 73.5 32t26.5 81v25h-114v229h245v-252q0 -96 -48 -153.5t-142 -57.5h-47z" />
<glyph unicode="&#x201a;" d="M514 -137h43q47 0 73.5 31.5t26.5 80.5v25h-114v229h245v-252q0 -96 -48 -153t-142 -57h-47z" />
<glyph unicode="&#x201c;" d="M367 1171v252q0 96 48 153.5t142 57.5h47l37 -96h-43q-47 0 -73.5 -31.5t-26.5 -81.5v-24h114v-230h-245zM717 1171v252q0 96 48 153.5t142 57.5h47l37 -96h-43q-47 0 -73.5 -31.5t-26.5 -81.5v-24h115v-230h-246z" />
<glyph unicode="&#x201d;" d="M338 1171h43q47 0 73.5 32t26.5 81v25h-114v229h245v-252q0 -96 -48 -153.5t-142 -57.5h-47zM688 1171h43q47 0 73.5 32t26.5 81v25h-114v229h246v-252q0 -96 -48.5 -153.5t-142.5 -57.5h-47z" />
<glyph unicode="&#x201e;" d="M338 -137h43q47 0 73.5 31.5t26.5 80.5v25h-114v229h245v-252q0 -96 -48 -153t-142 -57h-47zM688 -137h43q47 0 73.5 31.5t26.5 80.5v25h-114v229h246v-252q0 -96 -48.5 -153t-142.5 -57h-47z" />
<glyph unicode="&#x2020;" d="M127 1010v188h434v371h207v-371h434v-188h-434v-1010h-207v1010h-434z" />
<glyph unicode="&#x2021;" d="M127 457v188h434v365h-434v188h434v371h207v-371h434v-188h-434v-365h434v-188h-434v-457h-207v457h-434z" />
<glyph unicode="&#x2022;" d="M496 563v172q0 78 77 78h183q78 0 78 -78v-172q0 -41 -18.5 -59.5t-59.5 -18.5h-183q-77 0 -77 78z" />
<glyph unicode="&#x2026;" d="M66 0v229h245v-229h-245zM543 0v229h245v-229h-245zM1018 0v229h246v-229h-246z" />
<glyph unicode="&#x202f;" horiz-adv-x="370" />
<glyph unicode="&#x2030;" d="M0 471v137l756 340v-139zM0 1047v272q0 80 52 130t141 50h147q88 0 140 -50t52 -130v-272q0 -80 -52 -130.5t-140 -50.5h-147q-88 0 -140.5 50.5t-52.5 130.5zM139 1079q0 -80 82 -80h90q82 0 82 80v209q0 80 -82 80h-90q-82 0 -82 -80v-209zM158 82v270q0 80 52 130 t142 50h146q90 0 142 -50t52 -130v-270q0 -80 -52 -130t-142 -50h-146q-90 0 -142 50t-52 130zM299 115q0 -82 82 -82h90q82 0 82 82v209q0 80 -82 79h-90q-82 0 -82 -79v-209zM797 82v270q0 80 52 130t142 50h146q90 0 142 -50t52 -130v-270q0 -80 -52 -130t-142 -50h-146 q-90 0 -142 50t-52 130zM938 115q0 -82 82 -82h90q82 0 82 82v209q0 80 -82 79h-90q-82 0 -82 -79v-209z" />
<glyph unicode="&#x2039;" d="M430 164l260 444l-260 445h209l266 -445l-266 -444h-209z" />
<glyph unicode="&#x203a;" d="M424 608l266 445h209l-260 -445l260 -444h-209z" />
<glyph unicode="&#x2044;" d="M121 -10l1016 1513l102 -78l-1016 -1511z" />
<glyph unicode="&#x205f;" horiz-adv-x="462" />
<glyph unicode="&#x20ac;" d="M49 522v125h176v125h-176v127h176v203q0 156 83 227.5t253 71.5h344q170 0 253 -72t83 -227v-43l-207 -55v61q0 80 -33.5 112.5t-123.5 32.5h-287q-90 0 -123 -32.5t-35 -112.5v-166h410l-37 -127h-373v-125h338l-37 -125h-301v-184q0 -80 34 -112.5t124 -32.5h287 q90 0 123.5 32.5t33.5 112.5v63l207 -61v-41q0 -156 -82 -227.5t-254 -71.5h-344q-172 0 -254 71.5t-82 227.5v223h-176z" />
<glyph unicode="&#x2122;" d="M20 1573v151h758l187 -305h6l186 305h154v-753h-148v493h-8l-164 -278h-47l-164 278h-8v-493h-147v602h-207v-602h-148v602h-250z" />
<glyph unicode="&#x2212;" d="M190 535v190h951v-190h-951z" />
<glyph unicode="&#xe00c;" d="M86 0l463 1081h233l461 -1081h-227l-107 252h-487l-107 -252h-229zM471 416h389l-190 452h-8z" />
<glyph unicode="&#xf66e;" d="M127 0h201v178l53 107h567l53 -107v-178h203v246l-446 835h-185l-446 -835v-246zM367 1278v149h598v-149h-598zM449 459l215 405h4l215 -405h-434z" />
<glyph unicode="&#xf67a;" d="M225 0v1081h881v-174h-680v-270h559v-164h-559v-295h680v-178h-881zM367 1278v149h598v-149h-598z" />
<glyph unicode="&#xf685;" d="M256 0v193h305v698h-276v190h757v-190h-274v-698h305v-193h-817zM367 1278v149h598v-149h-598z" />
<glyph unicode="&#xf693;" d="M178 283v514q0 154 75 219t241 65h342q166 0 240.5 -65.5t74.5 -218.5v-514q0 -154 -75 -218.5t-240 -64.5h-342q-166 0 -241 64.5t-75 218.5zM367 1278v149h598v-149h-598zM385 328q0 -76 29.5 -105.5t113.5 -29.5h273q84 0 113.5 29.5t29.5 105.5v428q0 76 -29.5 105.5 t-113.5 29.5h-273q-84 0 -113.5 -30t-29.5 -105v-428z" />
<glyph unicode="&#xf6a1;" d="M182 283v798h207v-753q0 -76 31 -105.5t117 -29.5h258q84 0 114.5 29.5t30.5 105.5v753h207v-798q0 -154 -75 -218.5t-241 -64.5h-333q-166 0 -241 64.5t-75 218.5zM367 1278v149h598v-149h-598z" />
<glyph unicode="&#xf6fd;" d="M213 260v39l197 49v-47q0 -72 30.5 -100.5t122.5 -28.5h199q90 0 124 27.5t34 99.5v43q0 72 -37 101.5t-135 29.5h-209q-178 0 -252 62.5t-74 214.5v49q0 152 87 217t257 65h238q178 0 249.5 -63.5t71.5 -192.5v-16l-196 -57v34q0 72 -30 98.5t-124 26.5h-199 q-88 0 -122.5 -26.5t-34.5 -96.5v-24q0 -72 35.5 -99.5t136.5 -27.5h198q176 0 256 -69.5t80 -219.5v-67q0 -150 -87 -215.5t-257 -65.5h-237q-178 0 -250 64.5t-72 195.5zM371 1481h188l100 -133h13l100 133h189l-213 -258h-166z" />
<glyph unicode="&#xf6ff;" d="M193 0v172l653 717v2h-615v190h881v-174l-651 -712v-2h676v-193h-944zM371 1481h188l100 -133h13l100 133h189l-213 -258h-166z" />
<glyph unicode="&#xf761;" d="M127 0v246l446 835h185l446 -835v-246h-203v178l-53 107h-567l-53 -107v-178h-201zM449 459h434l-215 405h-4z" />
<glyph unicode="&#xf762;" d="M209 1081h596q170 0 242.5 -57t72.5 -203v-53q0 -92 -31.5 -143.5t-103.5 -73.5q76 -20 105.5 -70.5t29.5 -148.5v-66q0 -150 -72.5 -208t-242.5 -58h-594zM406 170h391q76 0 101.5 25.5t25.5 93.5v63q0 66 -27 92.5t-100 26.5h-391v-301zM406 625h391q74 0 100.5 26.5 t26.5 91.5v52q0 68 -26 93t-101 25h-391v-288z" />
<glyph unicode="&#xf763;" d="M182 283v514q0 154 75 219t241 65h333q166 0 241 -65.5t75 -218.5v-52l-207 -61v72q0 76 -30.5 105.5t-114.5 29.5h-260q-84 0 -115 -30t-31 -105v-428q0 -76 31 -105.5t115 -29.5h260q84 0 114.5 29.5t30.5 105.5v84l207 -66v-63q0 -154 -75 -218.5t-241 -64.5h-333 q-166 0 -241 64.5t-75 218.5z" />
<glyph unicode="&#xf764;" d="M193 0v1081h649q166 0 240.5 -65.5t74.5 -218.5v-514q0 -154 -74.5 -218.5t-240.5 -64.5h-649zM399 193h406q84 0 114.5 29.5t30.5 105.5v428q0 76 -30.5 105.5t-114.5 29.5h-406v-698z" />
<glyph unicode="&#xf765;" d="M225 0v1081h881v-174h-680v-270h559v-164h-559v-295h680v-178h-881z" />
<glyph unicode="&#xf766;" d="M246 0v1081h891v-190h-684v-316h563v-180h-563v-395h-207z" />
<glyph unicode="&#xf767;" d="M184 283v514q0 154 75 219t241 65h327q164 0 240 -64.5t76 -209.5v-37l-201 -53v57q0 70 -28.5 98.5t-108.5 28.5h-268q-84 0 -115 -29.5t-31 -105.5v-449q0 -76 31 -105.5t115 -29.5h282q80 0 108.5 29t28.5 98v152h-233v143h420v-305q0 -156 -76 -227.5t-240 -71.5 h-327q-166 0 -241 64.5t-75 218.5z" />
<glyph unicode="&#xf768;" d="M188 0v1081h207v-434h539v434h207v-1081h-207v461h-539v-461h-207z" />
<glyph unicode="&#xf769;" d="M256 0v193h305v698h-276v190h757v-190h-274v-698h305v-193h-817z" />
<glyph unicode="&#xf76a;" d="M213 283v88l207 61v-104q0 -76 30.5 -105.5t114.5 -29.5h209q84 0 115 29.5t31 105.5v563h-607v190h813v-798q0 -154 -74.5 -218.5t-240.5 -64.5h-283q-166 0 -240.5 64.5t-74.5 218.5z" />
<glyph unicode="&#xf76b;" d="M203 0v1081h207v-495h6l528 495h264l-454 -422l379 -358v-301h-201v223l-309 295l-213 -190v-328h-207z" />
<glyph unicode="&#xf76c;" d="M293 0v1081h207v-888h649v-193h-856z" />
<glyph unicode="&#xf76d;" d="M131 0v1081h203l330 -620h2l329 620h203v-1081h-201v711h-12l-262 -518h-115l-262 518h-12v-711h-203z" />
<glyph unicode="&#xf76e;" d="M180 0v1081h209l545 -757h8v757h207v-1081h-203l-551 758h-8v-758h-207z" />
<glyph unicode="&#xf76f;" d="M178 283v514q0 154 75 219t241 65h342q166 0 240.5 -65.5t74.5 -218.5v-514q0 -154 -75 -218.5t-240 -64.5h-342q-166 0 -241 64.5t-75 218.5zM385 328q0 -76 29.5 -105.5t113.5 -29.5h273q84 0 113.5 29.5t29.5 105.5v428q0 76 -29.5 105.5t-113.5 29.5h-273 q-84 0 -113.5 -30t-29.5 -105v-428z" />
<glyph unicode="&#xf770;" d="M244 0v1081h581q166 0 241 -65.5t75 -218.5v-160q0 -154 -75 -221.5t-241 -67.5h-374v-348h-207zM451 535h344q84 0 111.5 26.5t27.5 102.5v98q0 76 -27.5 102.5t-111.5 26.5h-344v-356z" />
<glyph unicode="&#xf771;" d="M170 283v514q0 154 74.5 219t240.5 65h344q166 0 241 -65.5t75 -218.5v-508q0 -102 -35 -160.5t-113 -83.5l207 -209h-237l-158 164h-324q-166 0 -240.5 64.5t-74.5 218.5zM377 328q0 -76 30.5 -105.5t114.5 -29.5h271q84 0 114.5 28.5t30.5 106.5v428q0 76 -30.5 105.5 t-114.5 29.5h-271q-84 0 -114.5 -30t-30.5 -105v-428z" />
<glyph unicode="&#xf772;" d="M219 0v1081h576q166 0 240.5 -65.5t74.5 -218.5v-115q0 -113 -43 -166t-121 -78l164 -223v-215h-207v188l-155 215h-322v-403h-207zM426 575h338q78 0 108.5 24t30.5 108v61q0 76 -27.5 103.5t-111.5 27.5h-338v-324z" />
<glyph unicode="&#xf773;" d="M213 260v39l197 49v-47q0 -72 30.5 -100.5t122.5 -28.5h199q90 0 124 27.5t34 99.5v43q0 72 -37 101.5t-135 29.5h-209q-178 0 -252 62.5t-74 214.5v49q0 152 87 217t257 65h238q178 0 249.5 -63.5t71.5 -192.5v-16l-196 -57v34q0 72 -30 98.5t-124 26.5h-199 q-88 0 -122.5 -26.5t-34.5 -96.5v-24q0 -72 35.5 -99.5t136.5 -27.5h198q176 0 256 -69.5t80 -219.5v-67q0 -150 -87 -215.5t-257 -65.5h-237q-178 0 -250 64.5t-72 195.5z" />
<glyph unicode="&#xf774;" d="M143 891v190h1045v-190h-420v-891h-207v891h-418z" />
<glyph unicode="&#xf775;" d="M182 283v798h207v-753q0 -76 31 -105.5t117 -29.5h258q84 0 114.5 29.5t30.5 105.5v753h207v-798q0 -154 -75 -218.5t-241 -64.5h-333q-166 0 -241 64.5t-75 218.5z" />
<glyph unicode="&#xf776;" d="M170 717v364h207v-329l285 -539h6l286 539v329h207v-364l-379 -717h-233z" />
<glyph unicode="&#xf777;" d="M76 737v344h196v-325l117 -430h8l209 690h119l209 -690h8l115 430v325h196v-344l-215 -737h-180l-188 616h-8l-189 -616h-180z" />
<glyph unicode="&#xf778;" d="M186 0v281l340 284l-301 252v264h207v-202l234 -203l233 203v202h207v-264l-301 -252l338 -284v-281h-207v217l-270 227l-273 -227v-217h-207z" />
<glyph unicode="&#xf779;" d="M168 741v340h207v-270l291 -266l288 266v270h207v-340l-393 -356v-385h-207v385z" />
<glyph unicode="&#xf77a;" d="M193 0v172l653 717v2h-615v190h881v-174l-651 -712v-2h676v-193h-944z" />
<glyph unicode="&#xf7e0;" d="M127 0v246l446 835h185l446 -835v-246h-203v178l-53 107h-567l-53 -107v-178h-201zM403 1477h201l199 -250h-203zM449 459h434l-215 405h-4z" />
<glyph unicode="&#xf7e1;" d="M127 0h201v178l53 107h567l53 -107v-178h203v246l-446 835h-185l-446 -835v-246zM449 459l215 405h4l215 -405h-434zM526 1227l199 250h201l-197 -250h-203z" />
<glyph unicode="&#xf7e2;" d="M127 0v246l446 835h185l446 -835v-246h-203v178l-53 107h-567l-53 -107v-178h-201zM371 1223l211 258h166l213 -258h-189l-100 133h-15l-98 -133h-188zM449 459h434l-215 405h-4z" />
<glyph unicode="&#xf7e3;" d="M127 0h201v178l53 107h567l53 -107v-178h203v246l-446 835h-185l-446 -835v-246zM332 1233q0 106 54 175t159 69q70 0 130 -50.5t95 -50.5q74 0 74 94h153q0 -106 -54 -174.5t-159 -68.5q-70 0 -130 50t-95 50q-74 0 -74 -94h-153zM449 459l215 405h4l215 -405h-434z" />
<glyph unicode="&#xf7e4;" d="M127 0h201v178l53 107h567l53 -107v-178h203v246l-446 835h-185l-446 -835v-246zM377 1266v174h201v-174h-201zM449 459l215 405h4l215 -405h-434zM754 1266v174h198v-174h-198z" />
<glyph unicode="&#xf7e5;" d="M127 0h201v178l53 107h567l53 -107v-178h203v246l-446 835h-185l-446 -835v-246zM449 459l215 405h4l215 -405h-434zM467 1382q0 84 56.5 138.5t140.5 54.5t140 -54.5t56 -138.5q0 -82 -56 -136t-140 -54t-140.5 54t-56.5 136zM578 1382q0 -37 24.5 -61.5t61.5 -24.5 q39 0 63.5 25t24.5 61q0 39 -23.5 63.5t-64.5 24.5q-37 0 -61.5 -24.5t-24.5 -63.5z" />
<glyph unicode="&#xf7e7;" d="M182 283v514q0 154 75 219t241 65h333q166 0 241 -65.5t75 -218.5v-52l-207 -61v72q0 76 -30.5 105.5t-114.5 29.5h-260q-84 0 -115 -30t-31 -105v-428q0 -76 31 -105.5t115 -29.5h260q84 0 114.5 29.5t30.5 105.5v84l207 -66v-63q0 -154 -75 -218.5t-241 -64.5h-333 q-166 0 -241 64.5t-75 218.5zM350 -348h219q131 0 183.5 51t52.5 164v61h-166v-37q0 -59 -21.5 -81.5t-85.5 -22.5h-124z" />
<glyph unicode="&#xf7e8;" d="M225 0v1081h881v-174h-680v-270h559v-164h-559v-295h680v-178h-881zM403 1477h201l199 -250h-203z" />
<glyph unicode="&#xf7e9;" d="M225 0v1081h881v-174h-680v-270h559v-164h-559v-295h680v-178h-881zM526 1227l199 250h201l-197 -250h-203z" />
<glyph unicode="&#xf7ea;" d="M225 0v1081h881v-174h-680v-270h559v-164h-559v-295h680v-178h-881zM371 1223l211 258h166l213 -258h-189l-100 133h-15l-98 -133h-188z" />
<glyph unicode="&#xf7eb;" d="M225 0v1081h881v-174h-680v-270h559v-164h-559v-295h680v-178h-881zM377 1266v174h201v-174h-201zM754 1266v174h198v-174h-198z" />
<glyph unicode="&#xf7ec;" d="M256 0v193h305v698h-276v190h757v-190h-274v-698h305v-193h-817zM403 1477h201l199 -250h-203z" />
<glyph unicode="&#xf7ed;" d="M256 0v193h305v698h-276v190h757v-190h-274v-698h305v-193h-817zM526 1227l199 250h201l-197 -250h-203z" />
<glyph unicode="&#xf7ee;" d="M256 0v193h305v698h-276v190h757v-190h-274v-698h305v-193h-817zM371 1223l211 258h166l213 -258h-189l-100 133h-15l-98 -133h-188z" />
<glyph unicode="&#xf7ef;" d="M256 0v193h305v698h-276v190h757v-190h-274v-698h305v-193h-817zM377 1266v174h201v-174h-201zM754 1266v174h198v-174h-198z" />
<glyph unicode="&#xf7f1;" d="M180 0v1081h209l545 -757h8v757h207v-1081h-203l-551 758h-8v-758h-207zM332 1233q0 106 54 175t159 69q70 0 130 -50.5t95 -50.5q74 0 74 94h153q0 -106 -54 -174.5t-159 -68.5q-70 0 -130 50t-95 50q-74 0 -74 -94h-153z" />
<glyph unicode="&#xf7f2;" d="M178 283v514q0 154 75 219t241 65h342q166 0 240.5 -65.5t74.5 -218.5v-514q0 -154 -75 -218.5t-240 -64.5h-342q-166 0 -241 64.5t-75 218.5zM385 328q0 -76 29.5 -105.5t113.5 -29.5h273q84 0 113.5 29.5t29.5 105.5v428q0 76 -29.5 105.5t-113.5 29.5h-273 q-84 0 -113.5 -30t-29.5 -105v-428zM403 1477h201l199 -250h-203z" />
<glyph unicode="&#xf7f3;" d="M178 283v514q0 154 75 219t241 65h342q166 0 240.5 -65.5t74.5 -218.5v-514q0 -154 -75 -218.5t-240 -64.5h-342q-166 0 -241 64.5t-75 218.5zM385 328q0 -76 29.5 -105.5t113.5 -29.5h273q84 0 113.5 29.5t29.5 105.5v428q0 76 -29.5 105.5t-113.5 29.5h-273 q-84 0 -113.5 -30t-29.5 -105v-428zM526 1227l199 250h201l-197 -250h-203z" />
<glyph unicode="&#xf7f4;" d="M178 283v514q0 154 75 219t241 65h342q166 0 240.5 -65.5t74.5 -218.5v-514q0 -154 -75 -218.5t-240 -64.5h-342q-166 0 -241 64.5t-75 218.5zM371 1223l211 258h166l213 -258h-189l-100 133h-15l-98 -133h-188zM385 328q0 -76 29.5 -105.5t113.5 -29.5h273 q84 0 113.5 29.5t29.5 105.5v428q0 76 -29.5 105.5t-113.5 29.5h-273q-84 0 -113.5 -30t-29.5 -105v-428z" />
<glyph unicode="&#xf7f5;" d="M178 283v514q0 154 75 219t241 65h342q166 0 240.5 -65.5t74.5 -218.5v-514q0 -154 -75 -218.5t-240 -64.5h-342q-166 0 -241 64.5t-75 218.5zM332 1233q0 106 54 175t159 69q70 0 130 -50.5t95 -50.5q74 0 74 94h153q0 -106 -54 -174.5t-159 -68.5q-70 0 -130 50t-95 50 q-74 0 -74 -94h-153zM385 328q0 -76 29.5 -105.5t113.5 -29.5h273q84 0 113.5 29.5t29.5 105.5v428q0 76 -29.5 105.5t-113.5 29.5h-273q-84 0 -113.5 -30t-29.5 -105v-428z" />
<glyph unicode="&#xf7f6;" d="M178 283v514q0 154 75 219t241 65h342q166 0 240.5 -65.5t74.5 -218.5v-514q0 -154 -75 -218.5t-240 -64.5h-342q-166 0 -241 64.5t-75 218.5zM377 1266v174h201v-174h-201zM385 328q0 -76 29.5 -105.5t113.5 -29.5h273q84 0 113.5 29.5t29.5 105.5v428q0 76 -29.5 105.5 t-113.5 29.5h-273q-84 0 -113.5 -30t-29.5 -105v-428zM754 1266v174h198v-174h-198z" />
<glyph unicode="&#xf7f9;" d="M182 283v798h207v-753q0 -76 31 -105.5t117 -29.5h258q84 0 114.5 29.5t30.5 105.5v753h207v-798q0 -154 -75 -218.5t-241 -64.5h-333q-166 0 -241 64.5t-75 218.5zM403 1477h201l199 -250h-203z" />
<glyph unicode="&#xf7fa;" d="M182 283v798h207v-753q0 -76 31 -105.5t117 -29.5h258q84 0 114.5 29.5t30.5 105.5v753h207v-798q0 -154 -75 -218.5t-241 -64.5h-333q-166 0 -241 64.5t-75 218.5zM526 1227l199 250h201l-197 -250h-203z" />
<glyph unicode="&#xf7fb;" d="M182 283v798h207v-753q0 -76 31 -105.5t117 -29.5h258q84 0 114.5 29.5t30.5 105.5v753h207v-798q0 -154 -75 -218.5t-241 -64.5h-333q-166 0 -241 64.5t-75 218.5zM371 1223l211 258h166l213 -258h-189l-100 133h-15l-98 -133h-188z" />
<glyph unicode="&#xf7fc;" d="M182 283v798h207v-753q0 -76 31 -105.5t117 -29.5h258q84 0 114.5 29.5t30.5 105.5v753h207v-798q0 -154 -75 -218.5t-241 -64.5h-333q-166 0 -241 64.5t-75 218.5zM377 1266v174h201v-174h-201zM754 1266v174h198v-174h-198z" />
<glyph unicode="&#xf7fd;" d="M168 741v340h207v-270l291 -266l288 266v270h207v-340l-393 -356v-385h-207v385zM526 1227l199 250h201l-197 -250h-203z" />
<glyph unicode="&#xf7ff;" d="M168 741v340h207v-270l291 -266l288 266v270h207v-340l-393 -356v-385h-207v385zM377 1266v174h201v-174h-201zM754 1266v174h198v-174h-198z" />
<glyph d="M47 0l510 1401h215l512 -1401h-231l-109 307h-557l-108 -307h-232zM434 492h463l-227 641h-8z" />
<glyph d="M158 0v1401h207v-664h6l608 664h260l-545 -596l596 -805h-246l-477 657l-202 -202v-455h-207z" />
<glyph d="M182 0v1401h643q170 0 253 -72t83 -227v-211q0 -127 -51 -195.5t-170 -85.5l315 -610h-231l-285 582h-350v-582h-207zM389 768h410q90 0 122.5 33t32.5 112v152q0 80 -32.5 112.5t-122.5 32.5h-410v-442z" />
<glyph d="M51 1401h223l388 -1090h6l389 1090h221l-506 -1401h-215z" />
<glyph d="M33 1401h198l162 -1020h6l203 582h125l203 -582h8l162 1020h196l-227 -1401h-180l-219 616h-11l-217 -616h-180z" />
<glyph d="M70 0l460 735l-419 666h235l320 -516l317 516h236l-418 -666l459 -735h-242l-352 567l-353 -567h-243z" />
<glyph d="M61 1401h240l365 -582l362 582h240l-500 -780v-621h-207v621z" />
<glyph d="M158 0v1401h207v-766h2l503 446h281l-440 -393l460 -688h-245l-359 551l-202 -170v-381h-207z" />
<glyph d="M129 1081h225l308 -829h6l309 829h223l-416 -1081h-237z" />
<glyph d="M88 1081h205l143 -745h6l162 420h121l164 -420h6l143 745h205l-215 -1081h-182l-178 440h-6l-177 -440h-184z" />
<glyph d="M145 0l394 573l-349 508h234l244 -368l243 368h234l-348 -508l391 -573h-236l-284 424l-285 -424h-238z" />
<glyph d="M168 -20l207 55v-53q0 -80 32.5 -113t122.5 -33h226q90 0 123.5 33t33.5 113v311h-4q-74 -96 -268 -96h-172q-301 0 -301 309v266q0 309 301 309h172q195 0 268 -96h4v96h207v-1130q0 -299 -350 -299h-268q-170 0 -252 70.5t-82 222.5v35zM375 553q0 -88 39 -129t133 -41 h141q225 0 225 156v196q0 156 -225 156h-141q-94 0 -133 -40t-39 -128v-170z" />
<glyph d="M178 -55v112l207 60v-135q0 -80 33 -113t123 -33h137q90 0 125 34t35 112v909h-461v190h667v-1130q0 -299 -352 -299h-180q-170 0 -252 70.5t-82 222.5zM819 1307v200h225v-200h-225z" />
<glyph d="M182 -14l207 55v-59q0 -80 34 -113t124 -33h233q90 0 125 34t35 112v311h-6q-74 -96 -266 -96h-185q-301 0 -301 309v575h207v-528q0 -88 39 -129t133 -41h154q225 0 225 156v542h207v-1130q0 -299 -352 -299h-277q-170 0 -253 70.5t-83 222.5v41z" />
<glyph d="M209 -348v1429h207v-96h4q74 96 268 96h172q301 0 301 -309v-463q0 -309 -301 -309h-172q-195 0 -268 96h-4v-444h-207zM416 369q0 -90 62.5 -133t162.5 -43h141q94 0 133 40.5t39 137.5v342q0 96 -38.5 137t-133.5 41h-141q-100 0 -162.5 -43t-62.5 -133v-346z" />
<glyph d="M168 309v463q0 309 301 309h172q195 0 268 -96h4v96h207v-1417h-207v432h-4q-74 -96 -268 -96h-172q-301 0 -301 309zM375 371q0 -96 39 -137t133 -41h141q100 0 162.5 43t62.5 133v346q0 90 -62.5 133t-162.5 43h-141q-94 0 -133 -41t-39 -137v-342z" />
<glyph d="M203 0v1081h207v-508h6l506 508h262l-449 -460l482 -621h-256l-369 487l-182 -174v-313h-207z" />
<glyph d="M219 0v1081h572q166 0 240.5 -65.5t74.5 -218.5v-105q0 -121 -42 -182t-149 -76l240 -434h-227l-213 403h-289v-403h-207zM426 575h334q86 0 112.5 31t26.5 111v51q0 76 -27.5 103.5t-111.5 27.5h-334v-324z" />
<glyph d="M141 1081h217l304 -825h6l305 825h217l-412 -1081h-225z" />
<glyph d="M63 1081h201l137 -739h9l200 674h109l203 -674h8l135 739h203l-228 -1081h-184l-186 612h-8l-187 -612h-186z" />
<glyph d="M145 0l392 573l-347 508h234l244 -368l241 368h236l-346 -508l389 -573h-238l-282 424l-285 -424h-238z" />
<glyph d="M109 1081h243l314 -413l311 413h244l-453 -587v-494h-207v494z" />
<glyph d="M188 299v483q0 156 82 227.5t254 71.5h281q172 0 254 -71.5t82 -227.5v-483q0 -156 -82 -227.5t-254 -71.5h-281q-172 0 -254 71.5t-82 227.5zM395 338q0 -80 33 -112.5t123 -32.5h227q90 0 123 32.5t33 112.5v407q0 80 -33 113t-123 33h-227q-90 0 -123 -33t-33 -113 v-407z" />
<glyph d="M174 0v193h408v698h-342v190h548v-888h367v-193h-981z" />
<glyph d="M203 0v147l628 478q80 66 80 133v22q0 63 -29.5 90t-111.5 27h-209q-86 0 -116.5 -29.5t-30.5 -105.5v-68l-207 56v43q0 156 73.5 222t241.5 66h275q162 0 241.5 -61.5t79.5 -192.5v-57q0 -80 -28.5 -135t-100.5 -107l-436 -335v-5h573v-188h-923z" />
<glyph d="M205 276v29l203 57v-53q0 -74 31.5 -105.5t117.5 -31.5h236q78 0 103.5 25.5t25.5 93.5v63q0 66 -28 92.5t-101 26.5h-248v154h248q76 0 102.5 26.5t26.5 91.5v48q0 68 -26 93t-103 25h-236q-86 0 -117.5 -31.5t-31.5 -103.5v-49l-203 51v33q0 147 81 208.5t255 61.5h266 q170 0 242.5 -57t72.5 -203v-51q0 -94 -30.5 -144.5t-100.5 -70.5q74 -20 102.5 -70.5t28.5 -150.5v-68q0 -150 -72.5 -208t-242.5 -58h-266q-174 0 -255 62t-81 214z" />
<glyph d="M131 254v170l598 657h244v-653h225v-174h-225v-254h-197v254h-645zM379 428h397v422h-4l-393 -418v-4z" />
<glyph d="M217 246v24l197 45v-26q0 -59 28.5 -88t108.5 -29h225q80 0 107.5 26.5t27.5 92.5v110q0 66 -28.5 93.5t-106.5 27.5h-211q-152 0 -151 -104h-197v663h868v-170h-671v-293q61 61 213 62h174q176 0 241.5 -66.5t65.5 -205.5v-123q0 -154 -75 -219.5t-240 -65.5h-250 q-326 0 -326 246z" />
<glyph d="M209 295v475q0 311 332 311h264q326 0 325 -247v-39l-196 -54v47q0 68 -30 95.5t-111 27.5h-230q-88 0 -122.5 -35.5t-34.5 -113.5v-154q59 53 202 54h211q176 0 243.5 -68t67.5 -211v-88q0 -158 -77.5 -226.5t-247.5 -68.5h-270q-170 0 -248 68.5t-78 226.5zM406 301 q0 -70 28.5 -99.5t108.5 -29.5h245q84 0 115 29.5t31 99.5v72q0 70 -31 99.5t-115 29.5h-231q-86 0 -118.5 -28t-32.5 -85v-88z" />
<glyph d="M209 891v190h911v-178l-475 -903h-237l481 891h-680z" />
<glyph d="M217 264v80q0 92 28.5 138t98.5 71q-70 25 -98.5 68t-28.5 133v71q0 131 74 193.5t241 62.5h263q168 0 241.5 -62.5t73.5 -193.5v-71q0 -90 -28.5 -133t-98.5 -68q70 -25 98.5 -71t28.5 -138v-80q0 -135 -76 -199.5t-239 -64.5h-263q-164 0 -239.5 64.5t-75.5 199.5z M414 289q0 -66 26.5 -93.5t102.5 -27.5h243q76 0 101.5 27.5t25.5 93.5v61q0 66 -26.5 93.5t-100.5 27.5h-243q-76 0 -102.5 -26.5t-26.5 -94.5v-61zM414 745q0 -66 26.5 -93t102.5 -27h243q74 0 100.5 27.5t26.5 92.5v48q0 68 -25.5 94t-101.5 26h-243q-78 0 -103.5 -26.5 t-25.5 -93.5v-48z" />
<glyph d="M215 248v33l197 53v-39q0 -68 28.5 -95.5t112.5 -27.5h213q86 0 119 32t33 105v176q-55 -55 -187 -55h-215q-174 0 -237.5 66.5t-63.5 214.5v75q0 156 78 225.5t248 69.5h247q170 0 248 -68.5t78 -226.5v-493q0 -156 -78 -224.5t-248 -68.5h-249q-324 0 -324 248z M412 719q0 -72 30.5 -101.5t114.5 -29.5h209q86 0 119 27.5t33 86.5v80q0 70 -29 99.5t-109 29.5h-223q-84 0 -114.5 -29.5t-30.5 -99.5v-63z" />
<glyph d="M172 0v193h389v1017h-364v191h938v-191h-367v-1017h389v-193h-985zM367 1569v149h598v-149h-598z" />
<glyph d="M47 0l510 1401h215l512 -1401h-231l-109 307h-557l-108 -307h-232zM377 1563v174h201v-174h-201zM434 492h463l-227 641h-8zM754 1563v174h198v-174h-198z" />
<glyph d="M47 0l510 1401h215l512 -1401h-231l-109 307h-557l-108 -307h-232zM434 492h463l-227 641h-8zM526 1522l199 250h201l-197 -250h-203z" />
<glyph d="M47 0l510 1401h215l512 -1401h-231l-109 307h-557l-108 -307h-232zM403 1772h201l199 -250h-203zM434 492h463l-227 641h-8z" />
<glyph d="M47 0l510 1401h215l512 -1401h-231l-109 307h-557l-108 -307h-232zM371 1518l211 258h166l213 -258h-189l-100 133h-15l-98 -133h-188zM434 492h463l-227 641h-8z" />
<glyph d="M47 0l510 1401h215l512 -1401h-231l-109 307h-557l-108 -307h-232zM332 1536q0 106 54 175t159 69q70 0 130 -50.5t95 -50.5q74 0 74 95h153q0 -106 -54 -175t-159 -69q-70 0 -130 50t-95 50q-74 0 -74 -94h-153zM434 492h463l-227 641h-8z" />
<glyph d="M47 0l510 1401h215l512 -1401h-231l-109 307h-557l-108 -307h-232zM367 1569v149h598v-149h-598zM434 492h463l-227 641h-8z" />
<glyph d="M61 1401h240l365 -582l362 582h240l-500 -780v-621h-207v621zM377 1563v174h201v-174h-201zM754 1563v174h198v-174h-198z" />
<glyph d="M61 1401h240l365 -582l362 582h240l-500 -780v-621h-207v621zM526 1522l199 250h201l-197 -250h-203z" />
<glyph d="M47 0l510 1401h215l512 -1401h-231l-109 307h-557l-108 -307h-232zM434 492h463l-227 641h-8zM467 1665q0 84 56.5 138.5t140.5 54.5t140 -54.5t56 -138.5q0 -82 -56 -136t-140 -54t-140.5 54t-56.5 136zM578 1665q0 -37 24.5 -61.5t61.5 -24.5q39 0 63.5 24.5t24.5 61.5 q0 39 -23.5 63.5t-64.5 24.5q-37 0 -61.5 -24.5t-24.5 -63.5z" />
<glyph d="M256 0v193h305v698h-276v190h757v-190h-274v-698h305v-193h-817zM332 1233q0 106 54 175t159 69q70 0 130 -50.5t95 -50.5q74 0 74 94h153q0 -106 -54 -174.5t-159 -68.5q-70 0 -130 50t-95 50q-74 0 -74 -94h-153z" />
<glyph d="M182 283v798h207v-753q0 -76 31 -105.5t117 -29.5h258q84 0 114.5 29.5t30.5 105.5v753h207v-798q0 -154 -75 -218.5t-241 -64.5h-333q-166 0 -241 64.5t-75 218.5zM332 1233q0 106 54 175t159 69q70 0 130 -50.5t95 -50.5q74 0 74 94h153q0 -106 -54 -174.5t-159 -68.5 q-70 0 -130 50t-95 50q-74 0 -74 -94h-153z" />
<glyph d="M86 0l463 1081h233l461 -1081h-227l-107 252h-487l-107 -252h-229zM377 1266v174h201v-174h-201zM471 416h389l-190 452h-8zM754 1266v174h198v-174h-198z" />
<glyph d="M86 0l463 1081h233l461 -1081h-227l-107 252h-487l-107 -252h-229zM471 416h389l-190 452h-8zM526 1227l199 250h201l-197 -250h-203z" />
<glyph d="M86 0l463 1081h233l461 -1081h-227l-107 252h-487l-107 -252h-229zM403 1477h201l199 -250h-203zM471 416h389l-190 452h-8z" />
<glyph d="M86 0l463 1081h233l461 -1081h-227l-107 252h-487l-107 -252h-229zM371 1223l211 258h166l213 -258h-189l-100 133h-15l-98 -133h-188zM471 416h389l-190 452h-8z" />
<glyph d="M86 0l463 1081h233l461 -1081h-227l-107 252h-487l-107 -252h-229zM332 1233q0 106 54 175t159 69q70 0 130 -50.5t95 -50.5q74 0 74 94h153q0 -106 -54 -174.5t-159 -68.5q-70 0 -130 50t-95 50q-74 0 -74 -94h-153zM471 416h389l-190 452h-8z" />
<glyph d="M86 0l463 1081h233l461 -1081h-227l-107 252h-487l-107 -252h-229zM367 1278v149h598v-149h-598zM471 416h389l-190 452h-8z" />
<glyph d="M109 1081h243l314 -413l311 413h244l-453 -587v-494h-207v494zM377 1266v174h201v-174h-201zM754 1266v174h198v-174h-198z" />
<glyph d="M109 1081h243l314 -413l311 413h244l-453 -587v-494h-207v494zM526 1227l199 250h201l-197 -250h-203z" />
<glyph d="M86 0l463 1081h233l461 -1081h-227l-107 252h-487l-107 -252h-229zM467 1382q0 84 56.5 138.5t140.5 54.5t140 -54.5t56 -138.5q0 -82 -56 -136t-140 -54t-140.5 54t-56.5 136zM471 416h389l-190 452h-8zM578 1382q0 -37 24.5 -61.5t61.5 -24.5q39 0 63.5 25t24.5 61 q0 39 -23.5 63.5t-64.5 24.5q-37 0 -61.5 -24.5t-24.5 -63.5z" />
<glyph d="M61 1401h246l359 -584l358 584h244l-463 -688h280l-47 -144h-270v-108h225l-41 -144h-184v-317h-207v317h-192l-41 144h233v108h-280l-45 144h288z" />
<glyph d="M213 260v41l197 47v-47q0 -72 30.5 -100.5t122.5 -28.5h199q90 0 124 27.5t34 99.5v43q0 72 -37 101.5t-135 29.5h-209q-178 0 -252 62.5t-74 214.5v49q0 283 315 282h60v162h153v-162h66q166 0 237.5 -63.5t71.5 -192.5v-16l-196 -53v30q0 72 -30 98.5t-124 26.5h-199 q-88 0 -122.5 -26.5t-34.5 -96.5v-24q0 -72 35.5 -99.5t136.5 -27.5h198q176 0 256 -69.5t80 -219.5v-67q0 -281 -315 -281h-60v-158h-153v158h-66q-166 0 -237.5 65.5t-71.5 194.5z" />
<glyph d="M178 283v514q0 152 74 218t229 66h97v154h176v-154h94q156 0 229.5 -66.5t73.5 -217.5v-52l-207 -61v72q0 76 -29.5 105.5t-113.5 29.5h-273q-84 0 -113.5 -30t-29.5 -105v-428q0 -76 29.5 -105.5t113.5 -29.5h273q84 0 113.5 29.5t29.5 105.5v84l207 -66v-63 q0 -152 -73.5 -217.5t-229.5 -65.5h-94v-150h-176v150h-97q-156 0 -229.5 65.5t-73.5 217.5z" />
<glyph d="M100 461v151h162v185q0 154 75 219t241 65h276q166 0 240.5 -65.5t74.5 -218.5v-41l-196 -58v70q0 74 -31 103.5t-115 29.5h-225q-84 0 -113.5 -29.5t-29.5 -105.5v-154h315l-41 -151h-274v-279h647v-182h-844v461h-162z" />
<glyph d="M168 782v299h207v-256l291 -260l288 260v256h207v-299l-350 -299l39 -2h240l-52 -143h-274v-338h-197v338h-286l-52 143h265l26 2z" />
<glyph d="M80 399v103h172v90h-172v100h172v105q0 154 74.5 219t240.5 65h287q166 0 240.5 -65.5t74.5 -218.5v-37l-196 -47v63q0 76 -31 105.5t-115 29.5h-235q-86 0 -114.5 -26.5t-28.5 -98.5v-94h335l-30 -100h-305v-90h274l-31 -103h-243v-102q0 -72 28.5 -98.5t114.5 -26.5 h235q84 0 115 29.5t31 105.5v68l196 -49v-43q0 -154 -69.5 -218.5t-235.5 -64.5h-297q-166 0 -240.5 64.5t-74.5 218.5v116h-172z" />
<glyph d="M106 1081h242l318 -415l315 415h242l-428 -544h243l-51 -152h-219v-385h-207v385h-229l-51 152h256z" />
<glyph d="M90 874v228q0 156 83 227.5t253 71.5h715v-1596h-207v1405h-479q-90 0 -124 -32.5t-34 -112.5v-145q0 -80 34 -114t124 -34h225v-967h-207v783h-102q-281 -1 -281 286z" />
<glyph d="M29 283v835q0 283 315 283h651q156 0 230.5 -64.5t74.5 -208.5v-491q0 -152 -44 -220.5t-175 -68.5h-55q-156 0 -188 107h-4q-55 -106 -199 -107h-78q-109 0 -154 53.5t-45 165.5v254q0 113 45.5 166t153.5 53h78q135 0 186 -102h4l15 94h125v-444q0 -66 17 -87.5 t73 -21.5q57 0 73.5 22.5t16.5 94.5v502q0 84 -37 119.5t-133 35.5h-608q-96 0 -139.5 -41t-43.5 -125v-774q0 -84 43 -125t140 -41h921l-53 -147h-891q-315 0 -315 283zM514 623q0 -68 21.5 -94.5t78.5 -26.5h58q66 0 101.5 46t35.5 114v71q0 68 -36 114t-101 46h-58 q-57 0 -78.5 -27.5t-21.5 -95.5v-147z" />
<glyph d="M39 -66v1184q0 283 315 283h621q156 0 230.5 -65.5t74.5 -209.5v-1126h-186v88h-9q-57 -88 -233 -88h-117q-254 0 -254 248v420q0 248 254 247h117q96 0 156.5 -33.5t76.5 -72.5h9v264q0 84 -37 119t-133 35h-516q-182 0 -183 -170v-1077q0 -84 43 -125t140 -41h895 l45 -162h-994q-315 -1 -315 282zM668 319q0 -76 33.5 -110.5t113.5 -34.5h94q82 0 133.5 39t51.5 113v243q0 78 -49.5 125t-135.5 47h-94q-80 0 -113.5 -33.5t-33.5 -111.5v-277z" />
<glyph d="M59 -66v893q0 283 316 283h600q156 0 230.5 -65.5t74.5 -208.5v-836h-186v88h-9q-57 -88 -243 -88h-107q-254 0 -254 248v235q0 121 61.5 179.5t192.5 58.5h107q96 0 161.5 -34t81.5 -73h9v179q0 84 -37 118.5t-133 34.5h-496q-182 0 -182 -170v-794q0 -84 43 -125 t139 -41h875l45 -164h-973q-316 -1 -316 282zM668 309q0 -76 33.5 -110.5t113.5 -34.5h84q84 0 139.5 37t55.5 110v78q0 78 -53.5 123t-141.5 45h-84q-80 0 -113.5 -34t-33.5 -111v-103z" />
<glyph d="M-467 -432v2263h2263v-2263h-2263zM-252 -217h1833v1833h-1833v-1833z" />
</font>
</defs>
</svg>
